<?xml version="1.0" encoding="utf-8"?>
<svg version="1.1" id="Layer_1" xmlns="http://www.w3.org/2000/svg" xmlns:xlink="http://www.w3.org/1999/xlink" x="0px" y="0px"
	 viewBox="150 0 4000 4000" style="enable-background:new 0 0 4000 4000;" xml:space="preserve">
	<g>
		<g>
			<g>
				<path style="fill:#FFFFFF;" d="M2453.059,2161.714l-75.772-99.466l-97.101-127.559l153.535-572.645l319.52-62.244
					c22.325,64.568,34.483,131.792,37.388,199.347C2802.04,1762.606,2672.199,2030.546,2453.059,2161.714z"/>
			</g>
			<g>
				<path style="fill:#C9D5E2;" d="M2453.059,2161.714l-75.772-99.466c2.573-6.058,5.312-11.992,8.175-17.844l-1.037-20.167
					c98.595-62.701,193.87-133.161,268.604-222.958c74.693-89.839,128.015-200.965,132.497-317.735
					c1.743,5.187,3.444,10.374,5.104,15.603C2802.04,1762.606,2672.199,2030.546,2453.059,2161.714z"/>
			</g>
			<g>
				<path style="fill:#371A45;" d="M2449.377,2180.827l-185.066-243.013l157.731-588.291l340.802-66.392l4.122,11.921
					c53.906,155.857,51.837,332.502-5.826,497.39c-57.555,164.57-164.316,300.137-300.619,381.714L2449.377,2180.827z
					 M2296.062,1931.564l160.601,210.889c261.279-164.131,385.621-522.002,286.858-825.962l-298.119,58.071L2296.062,1931.564z"/>
			</g>
			<g>
				<path style="fill:#371A45;" d="M2637.524,1717.175c-102.394,0-214.049-42.446-277.909-107.046
					c-5.64-5.703-5.586-14.897,0.118-20.537c5.706-5.64,14.901-5.591,20.538,0.117c62.883,63.608,176.747,103.896,276.874,97.837
					c52.699-3.159,92.92-19.331,113.254-45.542c4.913-6.343,14.039-7.495,20.377-2.573c6.338,4.917,7.489,14.038,2.572,20.376
					c-25.538,32.92-73.291,53.066-134.464,56.738C2651.827,1716.965,2644.693,1717.175,2637.524,1717.175z"/>
			</g>
			<g>
				<g>
					<path style="fill:#FFFFFF;" d="M1183.099,2208.192c-40.24,146.322,137.249,557.021,317.717,743.988
						s553.258-77.447,754.544-244.029s-161.106-632.749-260.697-755.677C1839.149,1760.519,1242.726,1991.374,1183.099,2208.192z"/>
				</g>
				<g>
					<path style="fill:#C9D5E2;" d="M2255.366,2708.148c-201.284,166.583-574.077,430.958-754.579,244.033
						c-23.611-24.503-47.198-52.787-70.212-83.867c91.735,0.645,140.254-100.796,107.37-163.012
						c-203.012-384.108-177.641-611.555-151.134-703.21c205.869-117.877,504.417-177.339,607.84-49.586
						C2094.267,2075.387,2456.651,2541.567,2255.366,2708.148z"/>
				</g>
				<g>
					<path style="fill:#371A45;" d="M1661.008,3031.003c-69.363,0-126.412-22.915-170.641-68.735
						c-86.293-89.399-177.703-235.791-244.523-391.602c-68.727-160.254-96.702-293.774-76.749-366.328l0,0
						c39.576-143.906,286.755-279.58,493.073-322.749c161.975-33.887,284.066-11.963,343.78,61.743
						c72.883,89.961,174.523,226.143,244.832,364.014c100.763,197.588,105.419,336.206,13.84,411.992
						c-143.585,118.833-274.25,205.181-388.367,256.65C1794.922,3012.668,1723.041,3031.003,1661.008,3031.003z M1197.103,2212.043
						L1197.103,2212.043c-17.97,65.347,10.231,195.132,75.438,347.178c65.505,152.739,154.749,295.874,238.726,382.871
						c169.481,175.586,533.145-78.208,734.833-245.127c79.681-65.947,72.55-192.593-21.198-376.426
						c-69.163-135.625-169.517-270.044-241.525-358.926c-51.754-63.877-166.661-82.681-315.26-51.592
						C1444.997,1956.706,1229.305,2095.021,1197.103,2212.043z"/>
				</g>
				<g>
					<path style="fill:#FFFFFF;" d="M1468.862,2535.086l-119.909,34.471c-27.102,7.792-41.32,37.569-30.193,63.481
						c38.282,89.151,127.886,265.991,226.997,239.602c120.114-31.981,71.277-161.282-23.999-317.092
						C1510.781,2537.599,1489.083,2529.273,1468.862,2535.086z"/>
				</g>
				<g>
					<path style="fill:#C9D5E2;" d="M1521.392,2555.463c95.643,155.579,144.789,284.808,24.731,317.026
						c-49.272,13.293-96.353-23.858-135.889-75.483c18.949,8.862,38.601,11.865,58.656,6.451
						c107.455-28.889,79.357-135.518,3.512-269.206C1491.432,2530.289,1511.138,2538.668,1521.392,2555.463z"/>
				</g>
				<g>
					<path style="fill:#371A45;" d="M1525.745,2889.743c-96.92,0-178.641-153.76-220.474-250.576
						c-6.969-16.128-6.666-34.502,0.83-50.41c7.521-15.962,21.556-27.93,38.507-32.847l119.83-34.746
						c26.461-7.666,54.987,3.301,69.36,26.689c84.666,137.754,112.548,224.009,90.406,279.663
						c-11.539,29.004-36.536,48.857-74.294,59.004C1541.762,2888.708,1533.701,2889.743,1525.745,2889.743z M1472.527,2549.064
						l-119.83,34.746c-8.945,2.593-16.351,8.911-20.32,17.329c-4.001,8.491-4.158,17.905-0.442,26.504
						c24.557,56.831,107.736,232.964,194.146,232.979c5.426,0,10.856-0.693,16.293-2.158c28.826-7.744,46.764-21.377,54.843-41.685
						c23.87-60-38.884-173.535-88.163-253.721C1501.499,2550.778,1486.482,2545.011,1472.527,2549.064L1472.527,2549.064z"/>
				</g>
				<g>
					<path style="fill:#371A45;" d="M1174.134,2235.09c57.298-18.563,114.785-35.003,174.095-45.896
						c12.106-1.941,16.172,15.44,4.419,19.031c-56.013,16.786-110.911,39.225-164.206,63.235
						C1163.277,2281.866,1148.559,2244.677,1174.134,2235.09L1174.134,2235.09z"/>
				</g>
			</g>
			<g>
				<g>
					<path style="fill:#FFFFFF;" d="M722.044,2266.801c56.094,85.535,186.271,256.243,409.684,308.539
						c139.946,32.716,263.868,15.013,353.165-11.167c90.627-26.552,145.634-61.79,145.634-61.79l52.55-327.082l29.472-183.5
						c0,0-44.762,20.414-108.567,44.802c-46.693,17.857-103.549,37.842-160.606,53.589c-72.789,20.132-145.84,33.339-198.162,26.235
						c-100.157-13.583-161.145-96.615-161.145-96.615s-6.804-139.411-53.349-161.054c-67.572-31.424-75.915,96.231-75.915,96.231
						s-124.289-122.392-224.625-80.637c-33.429,13.903-32.594,55.706-32.594,55.706s-41.286,8.405-66.711,59.988
						C597.635,2057.387,613.784,2101.666,722.044,2266.801z"/>
				</g>
				<g>
					<path style="fill:#C9D5E2;" d="M722.044,2266.801c56.094,85.535,186.271,256.243,409.684,308.539
						c139.946,32.716,263.868,15.013,353.165-11.167c90.627-26.552,145.634-61.79,145.634-61.79l8.882-176.324
						c0,0,13.578-264.437-9.371-206.969c-100.941,252.772-157.933,294.534-256.496,319.114
						c-274.02,68.337-491.03-76.55-560.41-139.438c-96.24-87.236-120.479-141.154-133.746-163.502
						c-27.445-46.229-48.623-82.55-60.237-114.869C604.905,2074.111,630.634,2127.395,722.044,2266.801z"/>
				</g>
				<g>
					<path style="fill:#371A45;" d="M1287.086,2607.819c-49.551,0-102.78-5.278-158.655-18.354
						c-163.97-38.369-308.688-147.188-418.512-314.697c-107.461-163.901-129.508-215.264-92.092-291.152
						c20.31-41.191,50.124-57.988,66.011-64.321c2.178-16.191,10.349-45.693,40.778-58.35
						c83.345-34.697,178.014,30.859,219.351,65.015c5.004-26.797,16.448-64.775,42.078-79.961
						c10.365-6.147,27.599-11.196,50.82-0.391c49.125,22.861,59.475,135.991,61.455,168.833
						c12.163,14.849,67.123,76.514,148.844,87.583c143.475,19.482,456.221-122.026,459.363-123.457l24.657-11.23l-87.34,543.755
						l-5.475,3.506C1631.083,2519.264,1489.978,2607.819,1287.086,2607.819z M775.242,1880.177c-13.434,0-26.718,2.28-39.468,7.583
						c-23.713,9.863-23.682,40.767-23.669,42.075l0.118,11.982l-11.741,2.471c-1.296,0.288-34.934,8.223-56.603,52.168
						c-29.823,60.488-16.316,99.727,90.332,262.383c105.658,161.157,244.266,265.703,400.839,302.344
						c248.146,58.076,447.25-47.583,482.217-67.803l76.706-477.544c-78.42,33.775-321.803,132.446-450.709,114.976
						c-105.067-14.233-168.262-98.794-170.901-102.388l-2.585-3.521l-0.215-4.365c-2.679-54.263-18.397-136.235-44.953-148.594
						c-12.732-5.923-19.648-3.384-23.745-0.967c-19.646,11.621-29.802,58.276-31.588,84.951l-2.113,31.553l-22.563-22.163
						C943.589,1964.328,856.843,1880.177,775.242,1880.177z"/>
				</g>
				<g>
					<path style="fill:#371A45;" d="M969.301,1955.373c-0.201,18.695-8.418,29.583-16.552,43.889
						c-6.701,11.135-13.028,21.369-17.757,32.632c-10.084,23.481-12.06,49.06-11.444,75.005c0.21,2.267-3.212,3.115-4.037,0.964
						c-5.386-12.602-9.938-26.032-11.45-40.268c-5.426-35.145,8.556-71.633,26.594-100.739c3.658-6.907,5.052-10.324,6.686-15.591
						C946.443,1936.032,968.853,1939.489,969.301,1955.373L969.301,1955.373z"/>
				</g>
				<g>
					<path style="fill:#371A45;" d="M1131.75,2589.85c-5.483,0-10.732-3.12-13.188-8.423c-3.371-7.28-0.204-15.913,7.075-19.282
						c136.527-63.237,127.694-439.731,127.589-443.525c-0.222-8.018,6.096-14.697,14.114-14.922
						c8.03-0.342,14.697,6.089,14.922,14.111c0.455,16.279,9.369,399.463-144.418,470.693
						C1135.869,2589.416,1133.792,2589.85,1131.75,2589.85z"/>
				</g>
			</g>
			<g>
				<g>
					<path style="fill:none;stroke:#371A45;stroke-width:27.0349;stroke-linecap:round;stroke-miterlimit:10;" d="
						M2806.121,2713.962"/>
				</g>
				<g>
					<path style="fill:none;stroke:#371A45;stroke-width:27.0349;stroke-linecap:round;stroke-miterlimit:10;" d="
						M2896.177,2304.247"/>
				</g>
				<g>
					<path style="fill:#FFFFFF;" d="M3093.897,2824.535c0,0-126.897-49.795-257.909-71.568
						c-85.904-14.299-173.558-16.537-228.392,15.186c0,0-393.786,414.754-803.21-109.639
						c-129.868-166.333-187.737-302.324-197.719-413.542c-1.41-15.638-1.851-30.727-1.421-45.397
						c0.399-15.481,1.857-30.418,4.191-44.846c3.703-22.891,10.955-45.261,12.905-52.232c11.336-40.525-15.063-65.617-15.304-99.256
						c-0.377-52.637,63.531-93.383,96.018-114.095c156.301-99.652,491.593-128.625,542.168-132.727
						c10.186,25.808,20.74,50.611,31.615,74.408c20.577,45.206,42.144,86.812,64.214,125.061
						c6.374,11.029,12.735,21.743,19.178,32.183c75.594,123.138,154.923,208.346,216.825,263.559
						c66.573,59.408,113.018,84.19,113.018,84.19c307.515-143.972,442.119,110.784,442.119,110.784s192.108-210.44,246.547,4.411
						C3419.046,2609.951,3242.152,2873.92,3093.897,2824.535z"/>
				</g>
				<g>
					<path style="fill:#C9D5E2;" d="M3093.897,2824.535c0,0-347.826-136.531-486.301-56.382c0,0-393.785,414.753-803.209-109.64
						c-129.868-166.333-187.738-302.323-197.719-413.542c-2.897-32.129-1.791-62.157,2.771-90.243
						c1.784-11.115,4.077-21.89,6.878-32.368c0.167,9.057,0.654,18.282,1.51,27.673c9.982,111.219,67.85,247.209,197.719,413.542
						c409.423,524.393,773.614,56.132,773.614,56.132c233.985-142.928,387.54,105.274,504.146,128.424
						c116.605,23.15,252.113-122.736,290.766-262.735C3394.686,2645.018,3231.875,2870.479,3093.897,2824.535z"/>
				</g>
				<g>
					<path style="fill:#371A45;" d="M2384.98,2018.097c25.377,27.115,48.037,56.024,72.126,84.07
						c47.063,55.824,96.274,110.434,152.063,157.681c27.198,23.019,56.951,45.445,87.726,63.145c0,0-12.987-0.337-12.987-0.337
						c166.785-80.4,343.854-56.908,452.166,102.489c3.118,4.713,5.889,9.132,8.942,14.669l-23.567-3.008
						c10.474-11.155,20.945-20.95,32.083-30.706c88.511-78.117,196.825-108.672,236.785,32.694
						c38.411,131.952-59.699,316.474-175.13,382.346c-20.049,11.156-42.579,19.771-65.427,22.666
						c-19.498,2.844-40.385,0.529-59.417-5.244c-6.347-2.178-23.471-8.628-30.192-10.964
						c-39.915-14.071-80.475-26.573-121.371-37.402c-108.605-28.789-223.156-45.415-328.743-17.854
						c-2.686,0.938-5.781-0.515-6.479-3.362c-0.497-1.904,0.204-3.843,1.63-5.017c11.096-9.844,24.971-17.725,38.939-22.925
						c41.703-15.721,88.361-15.38,131.716-10.936c108.277,11.473,212.548,40.443,314.315,77.466c0,0,5.088,1.914,5.088,1.914
						l2.56,0.979c0.746,0.315,1.255,0.483,2.081,0.667l8.79,2.312c52.612,11.459,103.432-19.079,140.812-53.745
						c80.555-76.41,150.717-222.411,106.603-331.914c-8.196-22.183-22.763-46.289-45.336-54.949
						c-57.091-19.432-130.263,45.165-167.853,83.558c0,0.001-13.841,14.574-13.841,14.574l-9.727-17.581
						c-63.497-107.379-183.355-165.781-306.967-141.993c-42.336,7.21-83.709,21.882-122.86,40.721
						c-35.743-19.563-67.869-44.04-99.197-69.687c-72.144-60.079-137.675-129.126-186.99-209.307
						c-9.662-16.079-18.431-32.727-26.441-49.719c-1.151-2.441-0.105-5.352,2.336-6.501
						C2381.243,2015.945,2383.572,2016.501,2384.98,2018.097L2384.98,2018.097z"/>
				</g>
				<g>
					<path style="fill:#FFFFFF;" d="M2685.856,3107.62"/>
				</g>
				<g>
					<path style="fill:#FFFFFF;" d="M3098.063,3107.864c-16.097,110.819-142.101,208.121-279.71,180.063
						c-90.936-18.526-156.722-75.033-198.308-126.019c-48.59-59.645-87.326-123.365-154.224-140.601
						c-76.279-19.627-170.497,133.003-431.913,56.971c-81.528-23.665-185.832-91.054-279.352-205.39
						c-30.178-36.857-59.19-78.584-85.96-125.356c-57.883-100.999-105.253-225.397-130.79-374.303
						c-11.039-64.599-17.973-133.865-19.854-207.787c-0.907-34.325-0.68-69.64,0.725-105.992
						c1.875-48.815,5.842-99.514,12.219-152.064l86.906,104.127l29.534,35.349l21.264,25.43l132.981,159.315l203.252,243.472
						l237.275,284.195l16.446,19.707c12.766-21.095,27.288-41.04,43.309-59.554c48.842-56.339,111.762-99.508,183.065-122.708
						c1.514-0.509,2.984-0.971,4.5-1.435c33.464-10.434,69.205-16.761,105.075-14.977c102.282,5.105,201.41,89.24,241.486,172.659
						c11.314,23.465,17.934,46.84,18.625,68.412c1.209,38.687,3.239,81.13,3.239,81.13
						C2888.017,2909.562,3116.443,2981.311,3098.063,3107.864z"/>
				</g>
				<g>
					<path style="fill:#C9D5E2;" d="M3098.063,3107.864c-9.985,101.799-158.646,204.726-279.71,180.063
						c-90.936-18.525-156.722-75.033-198.308-126.019c-48.59-59.646-87.326-123.365-154.224-140.601
						c-76.279-19.627-170.497,133.004-431.913,56.971c-81.529-23.665-185.833-91.054-279.352-205.39
						c-4.21-5.16-8.424-10.41-12.598-15.796c-3.272-4.204-6.546-8.452-9.778-12.793c-1.852-2.454-3.705-4.908-5.559-7.408
						c-5.994-8.157-11.906-16.544-17.825-25.11c-1.434-2.109-2.869-4.264-4.304-6.418c-1.672-2.461-3.298-4.879-4.879-7.299
						c-1.773-2.728-3.544-5.41-5.271-8.14c-5.321-8.228-10.557-16.64-15.665-25.238c0,0-5.112-8.509-10.081-17.155
						c-63.672-110.799-100.067-233.973-100.067-233.973c-13.885-46.994-28.365-107.708-37.016-179.803
						c2.078-0.376,1.242-0.225,3.32-0.602c13.015,51.599,33.563,113.729,66.893,180.404
						c51.231,102.484,113.431,177.235,162.424,227.071c125.946-28.13,237.441-121.631,268.566-149.606l-21.663-32.313
						c-17.213-25.629-18.521-57.459-6.22-83.631c3.999-8.63,9.511-16.597,16.368-23.578c3.904-4.027,8.321-7.623,13.156-10.874
						l328.276-220.069c38.906-26.108,92.063-15.652,118.129,23.302l22.427,33.457c2.146-1.66,4.389-3.144,6.77-4.543
						c35.633-20.932,81.45-9.023,102.338,26.612c20.788,35.368,9.181,80.858-25.95,101.952l11.572,17.233
						c26.063,38.908,15.514,92.023-23.349,118.085l-89.643,60.064l-183.065,122.708l-55.614,37.299
						c-1.363,0.909-2.727,1.773-4.141,2.548c-38.404,22.752-88.743,11.692-113.942-25.852l0,0
						c-9.503-14.174-28.871-17.662-42.733-7.709c-20.491,14.713-40.309,27.968-59.392,39.91
						c-77.411,48.441-62.133,165.936,25.409,191.926c0.571,0.169,1.141,0.337,1.71,0.502
						c261.417,76.033,355.635-76.598,431.868-56.969c66.944,17.234,105.679,80.953,154.27,140.599
						c41.586,50.986,107.371,107.493,198.307,126.018c107.571,21.948,208.105-32.761,254.5-110.65
						C3096.305,3069.991,3100.051,3087.592,3098.063,3107.864z"/>
				</g>
				<g>
					<path style="fill:#371A45;" d="M2254.417,2776.486c59.712-125.777,199.764-216.219,340.713-211.315
						c48.119,2.895,94.727,21.577,134.03,47.736c62.82,42.684,115.969,102.472,135.792,177.829
						c4.874,16.092,4.111,39.963,5.234,56.854c-0.001,0,2.188,54.217,2.188,54.217l-11.195-13.447
						c27.488,7.137,52.143,16.459,77.935,27.243c71.749,31.667,167.028,83.513,174.208,171.232
						c1.361,29.133-7.755,58.525-20.607,84.342c-61.136,118.486-206.271,166.201-328.137,116.146
						c-64.954-24.889-121.085-71.113-162.949-125.187c-16.871-21.089-32.679-42.549-49.63-62.199
						c-27.237-31.805-75.123-77.535-120.581-62.518c-20.46,6.072-51.128,22.092-71.15,31.476
						c-105.245,52.825-220.138,57.951-331.524,22.959c-159.547-45.565-270.305-172.868-353.037-310.119
						c-87.946-136.146-141.648-294.601-151.405-456.428c-0.155-2.673,1.888-4.965,4.561-5.119c2.483-0.142,4.638,1.619,5.056,4.011
						c26.325,156.719,81.61,307.955,167.328,441.801c81.966,136.081,186.222,258.359,345.002,300.654
						c101.85,30.504,206.676,23.783,301.683-24.061c30.562-13.753,63.637-34.299,98.07-37.338
						c52.338-0.897,95.936,38.61,128.014,75.735c17.937,20.824,33.819,42.428,50.324,63.036
						c39.569,50.879,90.397,92.925,150.638,116.177c35.372,13.291,73.594,20.846,111.268,17.134
						c89.525-7.447,176.592-73.003,195.879-162.698c21.426-96.869-116.451-159.356-190.876-186.546
						c-15.832-5.726-31.697-10.422-47.455-14.152c0.05-6.384-2.546-57.585-2.635-65.266c-0.762-14.733-0.636-36.964-4.492-51.321
						c-25.411-94.97-121.466-181.164-217.95-199.132c-51.058-8.577-103.545,2.74-151.264,21.51
						c-82.544,32.124-150.3,90.494-204.752,161.77C2259.273,2786.142,2251.939,2781.648,2254.417,2776.486L2254.417,2776.486z"/>
				</g>
				<g>
					<path style="fill:#371A45;" d="M2491.748,3044.391c-4.138,0-8.221-1.895-10.873-5.474
						c-81.01-109.37-56.948-249.927,2.834-340.703c53.915-81.87,134.772-121.567,211.019-103.604
						c7.267,1.714,11.769,8.994,10.056,16.26s-8.989,11.768-16.257,10.059c-65.875-15.537-134.014,18.921-182.24,92.153
						c-52.841,80.239-76.534,211.396-3.689,309.741c4.443,6.001,3.182,14.468-2.816,18.911
						C2497.364,3043.527,2494.543,3044.391,2491.748,3044.391z"/>
				</g>
				<g>
					<path style="fill:#371A45;" d="M2871.984,2907.707c-31.363,64.198-87.489,144.767-166.159,145.826
						c37.323-4.56,67.721-30.054,89.367-59.364c21.465-29.017,37.713-62.828,48.605-97.033
						C2850.674,2877.055,2880.01,2887.946,2871.984,2907.707L2871.984,2907.707z"/>
				</g>
				<g>
					<path style="fill:#371A45;" d="M2907.534,2780.929c-3.48,0-6.96-1.333-9.603-4.004
						c-86.672-87.5-129.053-178.975-125.963-271.895c4.425-133.101,100.361-219.355,104.443-222.964
						c5.593-4.937,14.137-4.409,19.08,1.182c4.94,5.591,4.417,14.126-1.167,19.067l0,0c-0.914,0.815-91.459,82.573-95.345,203.926
						c-2.726,85.083,37.029,169.756,118.159,251.66c5.254,5.303,5.214,13.862-0.09,19.116
						C2914.411,2779.626,2910.973,2780.929,2907.534,2780.929z"/>
				</g>
				<g>
					<g>
						
							<ellipse transform="matrix(0.7071 -0.7071 0.7071 0.7071 -863.7255 2457.1155)" style="fill:#FFFFFF;" cx="2534.138" cy="2271.167" rx="74.771" ry="74.771"/>
					</g>
					<g>
						<path style="fill:#C9D5E2;" d="M2598.59,2233.293c20.916,35.605,9.046,81.443-26.56,102.358
							c-35.606,20.916-81.473,8.995-102.389-26.611c-5.778-9.837-9.083-20.506-9.992-31.204
							c23.139,15.694,54.251,17.746,79.969,2.639c25.718-15.108,39.074-43.281,36.582-71.104
							C2585.102,2215.376,2592.812,2223.457,2598.59,2233.293z"/>
					</g>
					<g>
						<path style="fill:#371A45;" d="M2534.288,2360.5c-7.537,0-15.125-0.962-22.611-2.91c-23.085-5.996-42.451-20.63-54.532-41.191
							c-24.939-42.456-10.688-97.285,31.765-122.227c20.566-12.075,44.612-15.43,67.689-9.429
							c23.085,5.996,42.451,20.63,54.532,41.191v0.005c12.08,20.566,15.43,44.604,9.43,67.69s-20.631,42.451-41.196,54.531
							C2565.47,2356.32,2549.989,2360.5,2534.288,2360.5z M2534.038,2210.89c-10.594,0-21.039,2.822-30.414,8.33
							c-28.645,16.826-38.26,53.818-21.433,82.461c8.151,13.877,21.217,23.75,36.792,27.798c15.573,4.048,31.796,1.787,45.669-6.367
							c13.877-8.149,23.748-21.216,27.795-36.787c4.048-15.576,1.788-31.797-6.362-45.674l0,0
							c-8.151-13.877-21.217-23.75-36.792-27.798C2544.243,2211.54,2539.122,2210.89,2534.038,2210.89z"/>
					</g>
					<g>
						<path style="fill:#FFFFFF;" d="M2560.881,2470.579l-328.338,220.093c-38.853,26.062-92,15.592-118.092-23.313
							l-117.113-174.731c-22.835-34.064-17.618-79.026,10.148-107.188c3.91-4.019,8.325-7.646,13.165-10.903l328.287-220.063
							c38.904-26.093,92.051-15.622,118.092,23.313l92.79,138.37l24.373,36.331
							C2610.286,2391.392,2599.734,2444.517,2560.881,2470.579z"/>
					</g>
					<g>
						<path style="fill:#C9D5E2;" d="M2560.881,2470.579l-328.338,220.093c-38.853,26.062-92,15.592-118.092-23.313
							l-117.113-174.731c-22.835-34.064-17.618-79.026,10.148-107.188c26.944-0.116,44.094-0.13,44.094-0.13
							c110.001,129.535,173.533,237.641,381.474,77.342c71.688-55.263,107.166-111.002,126.766-146.496l24.373,36.331
							C2610.286,2391.392,2599.734,2444.517,2560.881,2470.579z"/>
					</g>
					<g>
						<path style="fill:#371A45;" d="M2185.532,2719.557c-6.515,0-13.081-0.635-19.625-1.929
							c-26.176-5.166-48.723-20.142-63.491-42.173l-117.144-174.746c-14.767-22.026-20.055-48.574-14.889-74.751
							s20.143-48.726,42.173-63.491l328.307-220.088c45.637-30.581,107.651-18.354,138.243,27.285l117.145,174.751
							c14.767,22.026,20.054,48.574,14.888,74.751s-20.143,48.726-42.17,63.491l-328.308,220.083
							C2224.139,2713.815,2205.074,2719.557,2185.532,2719.557z M2396.236,2154.577c-13.512,0-27.158,3.862-39.199,11.934
							l-328.308,220.088c-15.585,10.444-26.185,26.421-29.849,44.985c-3.663,18.564,0.072,37.368,10.519,52.954l117.145,174.746
							c10.447,15.586,26.423,26.187,44.988,29.849c18.562,3.667,37.369-0.078,52.954-10.522l328.308-220.083
							c15.583-10.444,26.184-26.421,29.847-44.985s-0.072-37.368-10.519-52.954l-117.144-174.751
							C2441.378,2165.549,2419.002,2154.577,2396.236,2154.577z"/>
					</g>
					<g>
						<path style="fill:#FFFFFF;" d="M2573.193,2460.453c-3.662,3.736-7.75,7.101-12.312,10.126l-328.338,220.093
							c-28.486,19.077-64.605,18.588-92.175,1.569c-10.031-6.167-18.931-14.514-25.865-24.912l-52.064-77.604l-17.177-25.605
							l-47.923-71.492c-26.092-38.904-15.54-92.03,23.313-118.092l70.958-47.541c-28.569,28.084-34.149,73.603-11.103,108.026
							l63.239,94.399l53.903,80.383c26.062,38.853,79.239,49.374,118.092,23.312L2573.193,2460.453z"/>
					</g>
					<g>
						<path style="fill:#C9D5E2;" d="M2573.193,2460.453c-3.662,3.736-7.75,7.101-12.312,10.126l-328.338,220.093
							c-38.853,26.062-92,15.592-118.04-23.343l-69.241-103.208c20.486,12.704,50.33,25.149,75.647,11.586
							c13.907-7.411,20.443-25.377,22.839-46.286l53.903,80.383c26.062,38.853,79.239,49.374,118.092,23.312L2573.193,2460.453z"/>
					</g>
					<g>
						<path style="fill:#371A45;" d="M2185.547,2719.567c-6.517,0-13.086-0.64-19.635-1.934
							c-26.189-5.171-48.737-20.156-63.49-42.192L1985.288,2500.7c-14.774-22.012-20.067-48.56-14.899-74.741
							c5.167-26.172,20.142-48.726,42.166-63.506l70.93-47.534l18.276,22.412c-24.172,23.804-28.03,61.494-9.172,89.624
							l117.139,174.741c10.439,15.596,26.415,26.201,44.988,29.863c18.564,3.687,37.355-0.063,52.913-10.508l257.505-172.656
							l18.39,22.305c-4.436,4.463-9.355,8.496-14.619,11.982l-328.268,220.068
							C2224.138,2713.82,2205.085,2719.562,2185.547,2719.567z M2053.182,2370.192l-24.449,16.387
							c-15.579,10.454-26.18,26.44-29.846,45.005c-3.664,18.564,0.073,37.363,10.525,52.935l117.148,174.761
							c10.433,15.586,26.406,26.191,44.978,29.858c18.566,3.662,37.358-0.068,52.917-10.513l27.034-18.12
							c-0.8-0.142-1.6-0.288-2.4-0.444c-26.191-5.171-48.74-20.156-63.495-42.197l-117.134-174.736
							C2053.685,2421.086,2048.785,2394.885,2053.182,2370.192z"/>
					</g>
					<g>
						<path style="fill:#22A7F0;" d="M2269.493,2437.049c4.294,6.486,29.841,64.884,29.841,64.884s-16.587,10.981-36.954,24.466
							c-25.446,16.846-63.516,4.157-85.033-28.343c-21.517-32.5-18.332-72.503,7.114-89.35
							c17.172-11.369,36.954-24.466,36.954-24.466S2262.497,2426.482,2269.493,2437.049z"/>
					</g>
					<g style="opacity:0.35;">
						<path style="fill:#371A45;" d="M2269.493,2437.049c4.294,6.486,29.841,64.884,29.841,64.884s-16.587,10.981-36.954,24.466
							c-25.446,16.846-63.516,4.157-85.033-28.343c-21.517-32.5-18.332-72.503,7.114-89.35
							c17.172-11.369,36.954-24.466,36.954-24.466S2262.497,2426.482,2269.493,2437.049z"/>
					</g>
					<g>
						<path style="fill:#371A45;" d="M2237.024,2543.805c-24.631,0-51.077-14.59-68.042-40.215
							c-11.638-17.578-17.209-37.778-15.688-56.875c1.594-20.02,10.696-36.484,25.63-46.372l43.884-29.058l5.797,5.962
							c4.271,4.39,41.949,43.232,49.253,54.263h0.001c4.427,6.694,24.591,52.515,30.664,66.401l3.381,7.725l-43.987,29.126
							C2258.653,2540.895,2248.017,2543.805,2237.024,2543.805z M2219.999,2397.209l-30,19.863
							c-9.68,6.406-15.613,17.5-16.707,31.235c-1.167,14.648,3.243,30.352,12.418,44.209c18.429,27.837,50.337,39.272,71.132,25.518
							l29.911-19.805c-11.382-25.835-23.331-52.085-25.627-55.649C2256.941,2436.266,2235.669,2413.498,2219.999,2397.209z"/>
					</g>
					<g>
						
							<ellipse transform="matrix(0.8338 -0.552 0.552 0.8338 -973.0453 1653.8075)" style="fill:#22A7F0;" cx="2260.374" cy="2443.086" rx="55.256" ry="70.574"/>
					</g>
					<g style="opacity:0.35;">
						<path style="fill:#371A45;" d="M2214.31,2473.599c21.492,32.489,59.577,45.194,85.018,28.354
							c25.479-16.862,28.653-56.876,7.101-89.381c-2.89-4.396-6.131-8.432-9.604-12.076c8.233,26.656,1.909,53.722-17.871,66.775
							c-21.974,14.547-53.392,7.091-75.393-16.24C2205.922,2458.709,2209.524,2466.323,2214.31,2473.599z"/>
					</g>
					<g>
						<path style="fill:#FFFFFF;" d="M2214.31,2473.599c1.456,2.217,3.004,4.329,4.643,6.336
							c-11.803-28.81-6.185-59.608,15.317-73.826c23.719-15.674,58.43-5.749,80.397,22.057c-2.162-5.336-4.907-10.533-8.238-15.593
							c-21.492-32.489-59.577-45.194-85.019-28.354C2195.992,2401.096,2192.796,2441.072,2214.31,2473.599z"/>
					</g>
					<g>
						<path style="fill:#371A45;" d="M2273.872,2519.445c-7.052,0-14.351-1.211-21.7-3.662
							c-18.176-6.06-34.596-19.077-46.235-36.655c-11.638-17.578-17.211-37.778-15.69-56.88
							c1.593-20.015,10.696-36.484,25.63-46.372c30.017-19.873,74.401-5.889,98.936,31.172l0,0
							c11.638,17.578,17.209,37.778,15.688,56.875c-1.594,20.02-10.696,36.484-25.63,46.372
							C2295.699,2516.369,2285.099,2519.445,2273.872,2519.445z M2247.053,2386.774c-7.231,0-14.125,1.875-20.103,5.83
							c-9.679,6.406-15.612,17.5-16.705,31.235c-1.167,14.653,3.245,30.356,12.419,44.214s21.907,24.048,35.851,28.696
							c13.073,4.365,25.599,3.232,35.28-3.184c9.68-6.406,15.613-17.5,16.707-31.235c1.167-14.648-3.243-30.352-12.418-44.209
							C2284.952,2398.288,2264.974,2386.774,2247.053,2386.774z"/>
					</g>
					<g>
						<path style="fill:#371A45;" d="M2457.979,2550.275c-4.144,0-8.199-2.051-10.59-5.806l-71.084-111.655
							c-6.827-10.728-7.815-24.067-2.643-35.679l21.355-47.954c1.782-3.999,1.398-8.569-1.028-12.212l-97.821-147.031
							c-3.835-5.762-2.272-13.545,3.494-17.383c5.764-3.833,13.547-2.275,17.385,3.496l97.82,147.026
							c7.212,10.835,8.356,24.409,3.058,36.309l-21.355,47.954c-1.741,3.906-1.407,8.398,0.891,12.007l71.083,111.655
							c3.718,5.84,1.998,13.594-3.844,17.31C2462.615,2549.64,2460.283,2550.275,2457.979,2550.275z"/>
					</g>
					<g>
						<path style="fill:#FFFFFF;" d="M1638.035,2679.299c0,0-19.776,44.783,6.204,83.747c30.037,45.05,76.467,45.051,76.467,45.051
							s160.147,3.651,396.505-182.738c0,0,16.954-108.834-89.558-108.346C2027.653,2517.013,1827.682,2710.473,1638.035,2679.299z"
							/>
					</g>
					<g>
						<path style="fill:#C9D5E2;" d="M1643.664,2762.161c-0.007,0.009-0.001,0.001-0.008,0.009
							c30.016,45.915,77.071,45.923,77.071,45.923s160.118,3.647,396.493-182.727c0,0,12.943-83.185-54.928-103.793
							c0.146,0.302,0.291,0.604,0.434,0.907c14.595,30.987,4.583,68.178-22.959,88.541
							c-218.858,161.806-364.791,158.503-364.791,158.503S1661.103,2769.532,1643.664,2762.161z"/>
					</g>
					<g>
						<path style="fill:#371A45;" d="M1721.694,2822.629c-0.652,0-1.036,0-1.336-0.01c-2.165,0-54.343-0.728-88.203-51.519
							c-8.345-12.51-13.455-26.665-15.188-42.065c-1.749-15.552,3.341-31.118,13.965-42.715
							c10.986-11.987,26.682-18.628,43.091-18.228h0.001c2.169,0.059,4.362,0.083,6.532,0.083
							c142.926,0.01,284.683-115.112,325.203-150.85c12.267-10.82,28.391-15.669,44.23-13.311
							c49.878,7.441,79.971,43.193,82.562,98.096c0.857,18.115-7.306,35.571-21.833,46.685
							C1889.85,2817.721,1738.373,2822.629,1721.694,2822.629z M1672.602,2697.126c-7.748,0-15.095,3.188-20.254,8.818
							c-5.025,5.483-7.339,12.529-6.516,19.839c1.211,10.757,4.74,20.581,10.49,29.204c25.094,37.637,62.882,38.564,64.479,38.589
							c1.688,0.103,151.995,0.62,372.269-167.856c6.96-5.322,10.873-13.638,10.466-22.241
							c-1.959-41.504-21.417-65.303-57.832-70.732c-7.344-1.104-14.904,1.226-20.73,6.367
							c-42.477,37.461-191.336,158.101-344.508,158.11c-2.392,0-4.769-0.029-7.164-0.088
							C1673.07,2697.126,1672.835,2697.126,1672.602,2697.126z"/>
					</g>
				</g>
				<g style="opacity:0.35;">
					<path style="fill:#371A45;" d="M2502.332,2575.416c-2.552-4.979-15.117-28.853-34.826-67.007
						C2487.214,2546.563,2499.735,2570.477,2502.332,2575.416z"/>
				</g>
				<g style="opacity:0.35;">
					<path style="fill:#371A45;" d="M2502.825,2576.411l0.044-0.04c0,0-0.194-0.305-0.498-0.911
						C2502.631,2576.106,2502.825,2576.411,2502.825,2576.411z"/>
				</g>
				<g>
					<path style="fill:#371A45;" d="M3144.628,2455.043c-25.558,30.802-50.945,64.163-63.44,102.797
						c3.057-42.23,20.275-81.83,38.53-119.685C3130.925,2418.656,3158.609,2437.367,3144.628,2455.043L3144.628,2455.043z"/>
				</g>
				<g>
					<path style="fill:#848484;" d="M3148.778,2829.379c-11.226-8.228-19.541-22.835-22.179-46.993
						c-12.755-116.524,115.183-416.72,235.215-377.844c6.523,12.601,12.251,27.939,16.928,46.473
						C3414.16,2590.659,3281.918,2811.344,3148.778,2829.379z"/>
				</g>
				<g>
					<path style="fill:#727171;" d="M3353.529,2634.688c-42.719,97.363-123.601,183.695-204.751,194.691
						c-11.226-8.228-19.541-22.835-22.179-46.993c-5.822-53.165,17.646-144.561,56.341-224.545
						c-9.35,46.711-17.529,160.874,33.473,173.246S3313.907,2671.601,3353.529,2634.688z"/>
				</g>
				<g style="opacity:0.7;">
					<path style="fill:#FFFFFF;" d="M3369.762,2591.095c5.829-33.861,5.785-66.821-1.65-96.162c-0.22-0.873-0.443-1.739-0.668-2.598
						c-9.254-35.337-49.619-52.712-81.404-34.709c-65.839,37.291-125.757,150.611-153.945,249.202
						c26.409-135.923,130.778-334.349,229.718-302.287c6.523,12.601,12.251,27.939,16.928,46.473
						C3389.364,2492.949,3384.892,2542.224,3369.762,2591.095z"/>
				</g>
				<g>
					<path style="fill:#371A45;" d="M3144.918,2844.562l-4.729-3.467c-15.717-11.528-25.146-30.747-28.027-57.134
						c-10.366-94.697,64.216-293.604,154.691-367.261c33.445-27.231,67.828-36.216,99.436-25.977l5.679,1.841l2.744,5.303
						c7.246,13.994,13.34,30.684,18.112,49.59c19.076,75.21-6.08,176.753-65.654,264.99
						c-50.735,75.142-115.045,123.008-176.442,131.328L3144.918,2844.562z M3340.184,2415.651c-17.296,0-35.719,7.886-54.991,23.574
						c-82.693,67.324-153.58,255.483-144.156,341.577c1.636,14.976,5.729,26.089,12.191,33.14
						c50.731-9.692,106.279-53.193,149.868-117.749c54.248-80.347,78.416-175.186,61.567-241.611
						c-3.59-14.229-7.949-26.885-12.99-37.734C3347.903,2416.047,3344.072,2415.651,3340.184,2415.651z"/>
				</g>
				<g>
					<path style="fill:#371A45;" d="M3237.083,2497.951c-6.185,0-10.593-0.098-12.576-0.151c-6.923-0.186-12.38-5.952-12.194-12.871
						c0.186-6.919,5.957-12.446,12.871-12.197c31.897,0.835,120.5-1.841,147.089-24.282c5.288-4.468,13.201-3.799,17.668,1.494
						c4.467,5.288,3.798,13.203-1.494,17.666C3355.837,2495.138,3270.543,2497.951,3237.083,2497.951z"/>
				</g>
				<g>
					<path style="fill:#371A45;" d="M3252.967,2583.937c-41.818,0-73.207-8.535-75.739-9.243c-6.667-1.87-10.558-8.789-8.69-15.459
						c1.868-6.665,8.782-10.562,15.446-8.691l0,0c1.119,0.308,112.709,30.42,191.033-27.749c5.559-4.121,13.413-2.969,17.543,2.593
						c4.128,5.562,2.968,13.413-2.592,17.544C3346.019,2575.563,3294.38,2583.937,3252.967,2583.937z"/>
				</g>
				<g>
					<path style="fill:#371A45;" d="M3227.514,2666.794c-54.06,0-81.921-18.364-83.772-19.629
						c-5.717-3.911-7.183-11.709-3.275-17.427c3.89-5.698,11.644-7.173,17.356-3.325c1.016,0.664,66.105,41.641,195.382-14.341
						c6.356-2.759,13.735,0.166,16.489,6.519c2.751,6.357-0.168,13.74-6.523,16.489
						C3307.247,2659.303,3262.036,2666.794,3227.514,2666.794z"/>
				</g>
				<g>
					<path style="fill:#371A45;" d="M3216.25,2761.769c-54.913,0-92.068-23.716-94.292-25.171
						c-5.796-3.794-7.419-11.563-3.629-17.358c3.787-5.786,11.547-7.412,17.34-3.638c2.982,1.919,69.299,43.516,154.352,4.37
						c6.295-2.891,13.738-0.137,16.632,6.152c2.896,6.289,0.142,13.735-6.149,16.631
						C3269.834,2756.867,3241.203,2761.769,3216.25,2761.769z"/>
				</g>
			</g>
			<g>
				<path style="fill:#FFFFFF;" d="M2244.449,1923.589l-92.617-148.472C2180.064,1828.549,2211.496,1878.07,2244.449,1923.589z"/>
			</g>
			<g>
				<path style="fill:#32B1D1;" d="M1874.013,2262.204"/>
			</g>
			<g style="opacity:0.35;">
				<path style="fill:#371A45;" d="M1514.516,2787.516c0.724,2.407,0.944,4.608,0.754,6.735
					C1515.185,2792.045,1514.919,2789.801,1514.516,2787.516z"/>
			</g>
			<g>
				<g>
					<path style="fill:#FFFFFF;" d="M2491.923,1725.395c-309.306,834.162-1482.816,446.051-1273.129-384.676
						C1515.154,479.323,2727.804,881.643,2491.923,1725.395z"/>
				</g>
				<g>
					<path style="fill:#FFFFFF;" d="M2491.923,1725.395c-309.306,834.162-1482.816,446.051-1273.129-384.676
						C1515.154,479.323,2727.804,881.643,2491.923,1725.395z"/>
				</g>
				<g>
					<path style="fill:#FFFFFF;" d="M2491.923,1725.395c-309.306,834.162-1482.816,446.051-1273.129-384.676
						C1515.154,479.323,2727.804,881.643,2491.923,1725.395z"/>
				</g>
				<g>
					<path style="fill:#371A45;" d="M1869.596,2202.575c-69.631,0-140.223-10.669-209.369-32.148
						c-162.699-50.537-299.179-154.868-384.299-293.779c-95.17-155.308-119.148-341.694-69.343-539.009l0.303-1.016
						c69.604-202.314,194.841-350.503,362.169-428.55c148.383-69.214,321.152-78.965,486.482-27.458
						c165.676,51.609,303.677,158.03,388.582,299.661c95.151,158.726,115.875,348.398,59.932,548.511l-0.321,0.991
						c-72.736,196.157-198.572,339.658-363.905,414.985C2055.467,2183.2,1963.408,2202.575,1869.596,2202.575z M1230.874,1344.313
						c-106.896,424.614,151.437,713.418,436.824,802.061c292.108,90.737,656.479-5.454,812.239-424.868
						c120.331-431.323-139.475-725.759-431.887-816.848C1758.474,814.445,1379.321,913.566,1230.874,1344.313z M2491.924,1725.397
						h0.05H2491.924z"/>
				</g>
				<g>
					<path style="fill:#C9D5E2;" d="M2491.919,1725.373c-254.61,725.14-1268.937,551.618-1299.088-186.425
						c86.175,224.945,168.378,219.469,313.041,315.471c448.625,319.817,987.762-75.122,975.965-559.549
						C2533.782,1435.319,2535.54,1586.951,2491.919,1725.373z"/>
				</g>
				<g>
					<path style="fill:#371A45;" d="M1868.559,2204.289c-38.375,0-77.04-3.213-115.546-9.722
						c-151.898-25.664-292.535-99.946-396.003-209.16c-112.744-119.004-174.128-270.122-177.515-437.017
						c-2.775-136.694,35.137-271.768,109.635-390.618c93.806-149.651,229.287-250.447,391.798-291.494
						c147.202-37.185,308.098-22.366,453.048,41.719c145.57,64.355,263.665,173.975,332.529,308.664
						c77.281,151.152,90.907,328.418,39.404,512.647l-0.37,1.138c-65.901,177.729-176.697,313.843-320.408,393.628
						C2089.953,2176.916,1980.53,2204.289,1868.559,2204.289z M1844.932,876.344c-194.308,0-397.622,83.772-531.189,296.855
						c-71.486,114.043-107.865,243.579-105.206,374.604c7.35,362.158,289.902,574.287,549.318,618.125
						c252.473,42.646,574.189-51.885,720.244-445.02c115.238-413.293-119.622-681.902-355.865-786.345
						C2038.862,897.707,1943.041,876.344,1844.932,876.344z M2491.924,1725.397h0.05H2491.924z"/>
				</g>
				<g>
					<path style="fill:#371A45;" d="M2420.304,1880.027c-559.87,544.669-1300.298-83.136-912.093-646.157
						C1981.351,629.656,2813.595,1189.615,2420.304,1880.027z"/>
				</g>
				<g>
					<path style="fill:#21102B;" d="M2485.721,1388.049c169.688,685.281-797.445,981.015-1055.41,379.961
						C1834.433,2060.804,2382.59,1764.702,2485.721,1388.049z"/>
				</g>
				<g>
					<path style="fill:#371A45;" d="M1939.889,2170.119c-45.017,0-90.581-5.112-135.823-15.454
						c-144.539-33.037-272.839-115.054-361.27-230.947c-97.531-127.817-138.279-285.039-117.842-454.668
						c25.712-175.33,130.465-338.052,287.445-446.765c157.531-109.092,347.835-149.956,522.106-112.127l2.018,0.623
						c153.123,61.807,274.967,184.929,343.09,346.685c64.366,152.834,73.158,324.827,24.12,471.873l-0.029,0.088
						c-58.826,172.031-161.371,301.514-296.549,374.458C2125.963,2147.692,2034.142,2170.119,1939.889,2170.119z M2004.56,921.259
						c-130.371,0-263.13,41.953-377.986,121.494c-151.33,104.8-252.272,261.379-276.943,429.592
						c-42.546,353.159,199.184,598.442,459.982,658.047c227.043,51.88,538.876-24.106,670.516-408.979
						c91.448-274.307-28.195-655.776-351.942-787.148C2087.673,925.549,2046.228,921.259,2004.56,921.259z M2491.924,1725.397h0.05
						H2491.924z"/>
				</g>
				<g>
					<path style="fill:#FFFFFF;" d="M1157.396,1835.944c114.738,291.963,417.009,201.542,335.568-88.23
						C1383.94,1437.298,1060.816,1533.916,1157.396,1835.944z"/>
				</g>
				<g>
					<path style="fill:#C9D5E2;" d="M1402.206,2010.051c90.806-26.439,131.539-154.245,85.683-277.31
						c-26.859,146.401-217.673-40.445-242.126-101.023C1023.455,1746.314,1236.46,2062.189,1402.206,2010.051z"/>
				</g>
				<g>
					<path style="fill:#371A45;" d="M1361.645,2029.484c-76.091,0-165.096-54.204-217.766-188.228l-0.316-0.889
						c-51.322-160.493,12.445-262.822,93.412-289.98c89.836-30.107,211.322,26.318,269.693,192.515l0.278,0.884
						c43.522,154.854-17.377,251.177-97.036,277.949C1394.823,2026.803,1378.548,2029.484,1361.645,2029.484z M1171.086,1831.071
						c57.457,145.781,159.242,186.777,229.57,163.13c66.553-22.368,116.572-105.894,78.451-242.109
						c-52.19-148.12-156.621-199.722-232.896-174.165C1178.395,1600.676,1126.008,1689.577,1171.086,1831.071z"/>
				</g>
				<g>
					<path style="fill:#FFFFFF;" d="M1149.433,1855.557c93.23,236.501,320.821,172.588,254.987-61.795
						C1316.264,1538.977,1069.004,1608.71,1149.433,1855.557z"/>
				</g>
				<g>
					<path style="fill:#C9D5E2;" d="M1429.207,1846.582c-3.308-35.607-16.395-70.434-35.928-100.584
						c-6.66,175.597-189.83,139.727-255.111,29.415C1156.181,2028.89,1431.094,2087.75,1429.207,1846.582z"/>
				</g>
				<g>
					<path style="fill:#371A45;" d="M1312.107,2018.81c-60.004,0-131.909-45.61-176.185-157.925l-0.297-0.83
						c-42.947-131.807,4.762-214.434,67.263-235.43c70.504-23.677,167.091,25.176,215.259,164.385l0.256,0.825
						c35.354,125.864-10.154,202.847-70.938,223.306C1336.423,2016.857,1324.518,2018.81,1312.107,2018.81z M1163.106,1850.641
						c46.494,117.568,123.319,152.402,175.094,134.971c47.698-16.055,82.346-80.249,52.355-187.51
						c-42.025-121.045-121.528-165.049-178.419-145.938C1162.838,1668.722,1126.511,1737.882,1163.106,1850.641z"/>
				</g>
				<g style="opacity:0.5;">
					<path style="fill:#FFFFFF;" d="M1535.809,1617.552c58.646,106.821,181.089,42.047,145.957-58.839
						C1630.271,1433.98,1484.728,1507.99,1535.809,1617.552z"/>
				</g>
				<g style="opacity:0.5;">
					<path style="fill:#FFFFFF;" d="M1646.636,1780.942c24.789,39.557,78.884,12.263,55.934-33.212
						C1677.783,1708.177,1623.688,1735.47,1646.636,1780.942z"/>
				</g>
				<g style="opacity:0.5;">
					<path style="fill:#FFFFFF;" d="M2388.305,1438.609c-23.388-450.479-485.98-406.488-601.856-283.926
						C2079.309,1110.175,2246.735,1259.802,2388.305,1438.609z"/>
				</g>
			</g>
			<g>
				<g>
					
						<ellipse transform="matrix(0.8922 -0.4517 0.4517 0.8922 -366.0929 1186.8503)" style="fill:#04BE9C;" cx="2302.643" cy="1360.155" rx="94.204" ry="169.804"/>
				</g>
				<g>
					<path style="fill:#371A45;" d="M2353.719,1532.092c-50.248,0-109.976-47.568-148.077-122.818
						c-46.692-92.217-40.659-186.028,13.734-213.569c54.402-27.527,133.579,23.12,180.27,115.334
						c21.583,42.629,32.656,87.62,31.178,126.697c-1.594,42.158-17.546,73.013-44.916,86.87
						C2375.902,1529.67,2365.046,1532.092,2353.719,1532.092z M2251.908,1217.194c-6.959,0-13.492,1.428-19.41,4.424
						c-38.533,19.512-38.965,99.438-0.941,174.531c38.022,75.088,102.69,122.066,141.232,102.539
						c17.529-8.872,27.832-30.913,29.01-62.051c1.294-34.229-8.673-74.175-28.068-112.476
						C2341.548,1260.6,2290.267,1217.194,2251.908,1217.194z"/>
				</g>
				<g>
					<path style="fill:#F28157;" d="M3035.414,1258.304l-594.638,202.085c-29.711,10.125-62.825,5.146-87.598-14.15
						c-34.234-26.724-60.252-63.24-76.975-101.209c-10.125-23.03-16.889-46.641-19.918-68.924
						c-0.871-6.515-0.705-12.947,0.415-19.213c3.029-17.262,13.32-32.781,28.674-42.409l563.309-354.542L3035.414,1258.304z"/>
				</g>
				<g style="opacity:0.6;">
					<path style="fill:#FFFFFF;" d="M2268.733,1313.453c-0.871-6.515-0.706-12.947,0.415-19.213
						c3.029-17.262,13.32-32.781,28.674-42.409l563.309-354.542l169.921,362.498l4.362-1.483l-186.732-398.362l-563.309,354.542
						c-15.354,9.627-25.645,25.147-28.674,42.409c-1.121,6.266-1.286,12.698-0.415,19.213c2.775,20.415,8.72,41.94,17.478,63.116
						C2271.566,1330.511,2269.88,1321.887,2268.733,1313.453z"/>
				</g>
				<g>
					<path style="fill:#B65249;" d="M3022.965,1233.407l-594.638,202.085c-29.711,10.125-62.825,5.146-87.598-14.15
						c-26.682-20.789-48.343-47.555-64.527-76.312c-10.125-23.03-16.889-46.641-19.918-68.924
						c-0.871-6.515-0.705-12.947,0.415-19.213c14.814,22.781,33.238,43.695,54.982,60.709c24.773,19.295,57.887,24.275,87.598,14.15
						l577.749-196.359L3022.965,1233.407z"/>
				</g>
				<g>
					<path style="fill:#371A45;" d="M2409.78,1480.09c-23.595,0-46.643-7.671-65.533-22.427
						c-53.768-41.982-92.982-110.801-102.336-179.595c-4.065-29.883,9.961-59.673,35.734-75.894l0,0l563.302-354.524
						c3.523-2.219,7.832-2.815,11.824-1.643c3.995,1.172,7.295,4.001,9.063,7.771l186.732,398.362
						c1.753,3.74,1.831,8.052,0.212,11.853c-1.617,3.801-4.778,6.733-8.689,8.062l-594.622,202.092
						C2433.74,1478.132,2421.69,1480.09,2409.78,1480.09z M2293.115,1226.76c-16.155,10.166-24.956,28.77-22.423,47.393
						c8.246,60.64,44.136,123.687,91.433,160.62c20.682,16.152,48.35,20.591,73.994,11.875l579.257-196.873L2842.507,880.99
						L2293.115,1226.76z"/>
				</g>
				<g>
					<path style="fill:#371A45;" d="M3090.71,1294.403c-77.148,0-168.137-89.748-219.923-223.696
						c-27.761-71.802-39.509-145.1-33.081-206.389c6.788-64.739,33.131-109.128,74.175-124.998
						c82.54-31.899,193.821,63.648,253.326,217.559l0,0c27.761,71.804,39.509,145.1,33.081,206.392
						c-6.788,64.736-33.131,109.128-74.175,124.998C3113.408,1292.406,3102.207,1294.403,3090.71,1294.403z M2945.252,762.26
						c-7.977,0-15.645,1.35-22.898,4.155c-30.363,11.738-50.165,47.583-55.76,100.933c-5.956,56.797,5.155,125.298,31.285,192.886
						c51.842,134.094,150.645,226.125,215.76,200.94c30.363-11.738,50.165-47.583,55.76-100.933
						c5.956-56.792-5.157-125.303-31.285-192.888l0,0C3092.046,848.198,3008.891,762.26,2945.252,762.26z"/>
				</g>
				<g>
					<path style="fill:#04BE9C;" d="M3148.159,1254.569c-8.382,9.005-18.175,15.851-29.296,20.167
						c-73.822,28.508-178.806-65.149-234.535-209.264c-55.688-144.116-41.04-284.082,32.782-312.59
						c6.556-2.531,13.403-4.108,20.458-4.731c71.705-6.681,163.37,82.743,214.078,213.954
						C3198.95,1084.477,3195.506,1203.861,3148.159,1254.569z"/>
				</g>
				<g>
					<path style="fill:#371A45;" d="M3090.733,1294.401c-77.163,0-168.159-89.751-219.952-223.689
						c-27.751-71.819-39.497-145.117-33.074-206.401c6.785-64.741,33.126-109.126,74.17-124.976c7.787-3.008,16-4.91,24.412-5.652
						c79.739-7.439,176.051,86.433,228.903,223.189c48.403,125.208,45.767,251.692-6.403,307.595l0,0
						c-10.018,10.759-21.685,18.769-34.674,23.809C3113.417,1292.406,3102.22,1294.401,3090.733,1294.401z M2945.52,762.309
						c-2.227,0-4.421,0.1-6.606,0.303c-5.771,0.51-11.324,1.792-16.572,3.818c-30.356,11.724-50.154,47.561-55.745,100.908
						c-5.952,56.792,5.156,125.298,31.278,192.9c51.842,134.067,150.645,226.067,215.756,200.95
						c8.846-3.433,16.895-8.992,23.899-16.516c0.005-0.005,0.01-0.01,0.015-0.015c44.156-47.292,44.39-163.918,0.554-277.314
						C3092.184,848.537,3010.594,762.309,2945.52,762.309z"/>
				</g>
				<g>
					<path style="fill:#03AF90;" d="M3177.994,1195.106c-7.926,31.454-36.433,51.206-66.062,50.417
						c-10.416-0.249-20.955-3.029-30.748-8.714c-55.148-31.911-111.251-103.657-147.062-196.235
						c-33.612-87.059-41.621-172.623-26.392-232.959c2.946-11.661,8.714-21.703,16.308-29.711
						c20.084-21.121,53.032-27.927,80.544-12.034c55.148,31.91,111.292,103.657,147.062,196.235
						C3185.298,1049.164,3193.265,1134.729,3177.994,1195.106z"/>
				</g>
				<g>
					<path style="fill:#371A45;" d="M3113.644,1255.922c-0.663,0-1.322-0.01-1.987-0.027c-12.449-0.298-24.797-3.796-35.681-10.115
						c-59.369-34.353-116.021-109.668-151.528-201.462c-33.003-85.483-43.011-174.917-26.775-239.241
						c3.257-12.883,9.771-24.749,18.84-34.312c24.485-25.75,62.831-31.46,93.259-13.877
						c59.442,34.392,116.094,109.712,151.549,201.479c33.024,85.427,43.016,174.875,26.733,239.272l0,0
						C3179.474,1231.691,3148.37,1255.922,3113.644,1255.922z M2972.066,767.516c-14.845,0-29.565,6.028-40.509,17.537
						c-6.713,7.078-11.349,15.53-13.77,25.105c-15.225,60.317-5.5,145.059,26.012,226.682
						c33.855,87.52,87.157,158.921,142.579,190.989c7.999,4.644,16.676,7.107,25.801,7.324
						c25.912,0.674,49.364-17.219,55.754-42.581c0.001-0.005,0.001-0.007,0.002-0.01c15.273-60.386,5.565-145.142-25.969-226.716
						c-33.806-87.5-87.107-158.899-142.581-190.996C2990.843,769.914,2981.429,767.516,2972.066,767.516z"/>
				</g>
				<g>
					<path style="fill:#371A45;" d="M3128.199,1215.854c-2.946,11.619-8.714,21.661-16.267,29.669
						c-10.416-0.249-20.955-3.029-30.748-8.714c-55.148-31.911-111.251-103.657-147.062-196.235
						c-33.612-87.059-41.621-172.623-26.392-232.959c2.946-11.661,8.714-21.703,16.308-29.711
						c10.374,0.249,20.914,3.029,30.749,8.714c55.148,31.91,111.292,103.657,147.062,196.235
						C3135.502,1069.912,3143.469,1155.477,3128.199,1215.854z"/>
				</g>
				<g>
					<path style="fill:#FFFFFF;" d="M2419.116,1130.298c114.064,88.285,316.212,4.408,267.503-128.634
						c-7.715-21.073-20.979-39.93-39.042-53.245c-62.537-46.099-139.838-5.804-206.19,57.348
						c-11.226,10.685-23.092,20.646-35.246,30.262C2366.694,1067.237,2383.678,1103.563,2419.116,1130.298z"/>
				</g>
				<g>
					<path style="fill:#C9D5E2;" d="M2686.62,1001.664c-1.833-5.005-4.001-9.873-6.449-14.583
						c19.376,119.476-166.097,189.002-273.503,105.871c-9.055-6.831-16.893-14.291-22.905-22.129
						c-2.52,21.184,12.596,42.307,35.354,59.475C2533.181,1218.583,2735.328,1134.706,2686.62,1001.664z"/>
				</g>
				<g>
					<path style="fill:#371A45;" d="M2529.759,1181.457c-40.978,0-83.322-11.675-119.462-39.619
						c-26.794-20.234-41.096-42.974-41.359-65.764c-0.153-13.169,4.615-32.783,28.192-51.436
						c13.593-10.754,24.474-20.093,34.243-29.392c86.863-82.668,164.608-102.896,224.819-58.521
						c19.819,14.609,35.056,35.339,44.065,59.946c20.209,55.198,2.494,109.937-47.386,146.423
						C2620.965,1166.432,2576.242,1181.457,2529.759,1181.457z M2587.815,943.154c-47.705,0-98.086,36.653-136.414,73.132
						c-10.426,9.924-21.945,19.817-36.248,31.133c-11.505,9.101-17.281,18.63-17.169,28.32c0.15,13.093,11.041,28.752,29.878,42.964
						c0.048,0.037,0.095,0.073,0.143,0.11c63.523,49.165,155.497,39.028,207.717,0.837c23.163-16.943,58.801-54.15,37.258-112.993
						c-7.042-19.238-18.806-35.334-34.021-46.548C2622.783,948.183,2605.477,943.154,2587.815,943.154z"/>
				</g>
				<g style="opacity:0.4;">
					
						<ellipse transform="matrix(0.842 -0.5395 0.5395 0.842 -6.6855 1751.0049)" style="fill:#FFFFFF;" cx="2985.619" cy="886.915" rx="31.122" ry="62.244"/>
				</g>
				<g style="opacity:0.4;">
					<circle style="fill:#FFFFFF;" cx="3041.638" cy="969.907" r="20.748"/>
				</g>
			</g>
		</g>
		<g>
			<g>
				<path style="fill:#FFFFFF;" d="M3066.023,1699.921c-0.867,3.92-9.659,5.562-22.079,4.79c-6.27-0.39-12.099,3.328-14.389,9.178
					c-4.536,11.587-9.732,18.867-13.652,18.001c-3.92-0.867-5.562-9.659-4.791-22.078c0.39-6.271-3.329-12.1-9.179-14.39
					c-11.596-4.538-18.896-9.739-18.029-13.659c0.872-3.942,9.677-5.586,22.095-4.801c6.277,0.397,12.115-3.322,14.407-9.18
					c4.539-11.6,9.735-18.879,13.654-18.012c3.92,0.867,5.562,9.658,4.787,22.091c-0.391,6.277,3.334,12.11,9.193,14.397
					C3059.622,1690.781,3066.894,1695.979,3066.023,1699.921z"/>
			</g>
			<g>
				<path style="fill:#FFFFFF;" d="M742.505,2846.335c-0.867,3.92-9.659,5.562-22.078,4.791c-6.27-0.39-12.099,3.328-14.389,9.178
					c-4.536,11.587-9.732,18.867-13.652,18.001c-3.92-0.867-5.562-9.659-4.79-22.078c0.39-6.271-3.329-12.1-9.179-14.39
					c-11.596-4.538-18.896-9.739-18.029-13.659c0.872-3.942,9.678-5.585,22.095-4.801c6.277,0.397,12.115-3.322,14.407-9.18
					c4.539-11.6,9.734-18.879,13.654-18.012s5.562,9.658,4.787,22.091c-0.391,6.277,3.334,12.11,9.193,14.397
					C736.104,2837.195,743.377,2842.394,742.505,2846.335z"/>
			</g>
			<g>
				<path style="fill:#FFFFFF;" d="M3352.606,2157.501c-0.867,3.92-9.659,5.562-22.079,4.79c-6.27-0.39-12.099,3.328-14.389,9.178
					c-4.536,11.587-9.732,18.867-13.652,18c-3.92-0.867-5.562-9.659-4.791-22.078c0.39-6.271-3.329-12.1-9.179-14.39
					c-11.596-4.538-18.896-9.739-18.029-13.659c0.872-3.942,9.677-5.585,22.095-4.801c6.277,0.397,12.115-3.322,14.407-9.18
					c4.539-11.6,9.735-18.879,13.655-18.012c3.92,0.867,5.562,9.658,4.787,22.091c-0.391,6.277,3.334,12.11,9.193,14.397
					C3346.205,2148.361,3353.478,2153.559,3352.606,2157.501z"/>
			</g>
			<g>
				<path style="fill:#FFFFFF;" d="M1900.245,3344.288c-0.867,3.92-9.659,5.562-22.078,4.79c-6.27-0.39-12.099,3.328-14.389,9.178
					c-4.536,11.587-9.732,18.867-13.652,18c-3.92-0.867-5.562-9.659-4.791-22.078c0.39-6.271-3.329-12.1-9.179-14.389
					c-11.596-4.538-18.896-9.739-18.029-13.659c0.872-3.942,9.677-5.585,22.095-4.801c6.277,0.397,12.115-3.322,14.407-9.18
					c4.539-11.6,9.734-18.879,13.654-18.012s5.562,9.658,4.787,22.091c-0.391,6.277,3.334,12.11,9.193,14.397
					C1893.844,3335.148,1901.116,3340.346,1900.245,3344.288z"/>
			</g>
			<g>
				
					<ellipse transform="matrix(0.6651 -0.7467 0.7467 0.6651 -1772.6184 1795.455)" style="fill:#FFFFFF;" cx="1115.464" cy="2874.04" rx="16.47" ry="16.469"/>
			</g>
			<g>
				<path style="fill:#FFFFFF;" d="M3079.985,1932.109c-4.6,7.847-14.69,10.479-22.537,5.879c-7.847-4.6-10.479-14.691-5.878-22.537
					c4.6-7.847,14.69-10.479,22.537-5.879C3081.954,1914.172,3084.586,1924.263,3079.985,1932.109z"/>
			</g>
			<g>
				
					<ellipse transform="matrix(0.7236 -0.6902 0.6902 0.7236 -145.8818 2703.1252)" style="fill:#FFFFFF;" cx="3302.305" cy="1533.717" rx="16.469" ry="16.469"/>
			</g>
			<g>
				
					<ellipse transform="matrix(0.9956 -0.0938 0.0938 0.9956 -57.8698 121.6959)" style="fill:#FFFFFF;" cx="1265.89" cy="676.573" rx="19.608" ry="19.608"/>
			</g>
			<g>
				
					<ellipse transform="matrix(0.8042 -0.5944 0.5944 0.8042 -610.1265 844.1945)" style="fill:#FFFFFF;" cx="976.139" cy="1348.064" rx="19.608" ry="19.608"/>
			</g>
			<g>
				
					<ellipse transform="matrix(0.7071 -0.7071 0.7071 0.7071 -243.5257 660.8893)" style="fill:#FFFFFF;" cx="676.001" cy="624.406" rx="15.601" ry="15.601"/>
			</g>
			<g>
				
					<ellipse transform="matrix(0.7071 -0.7071 0.7071 0.7071 -2013.8928 1889.2202)" style="fill:#FFFFFF;" cx="1273.544" cy="3375.594" rx="15.601" ry="15.601"/>
			</g>
			<g>
				<circle style="fill:#FFFFFF;" cx="1264.714" cy="3102.73" r="7.143"/>
			</g>
			<g>
				<circle style="fill:#FFFFFF;" cx="957.643" cy="3160.825" r="7.143"/>
			</g>
			<g>
				<path style="fill:#FFFFFF;" d="M2858.269,2071.411c-2.86,4.779-9.053,6.334-13.832,3.474c-4.779-2.86-6.334-9.053-3.474-13.832
					c2.86-4.779,9.053-6.334,13.832-3.474C2859.573,2060.439,2861.129,2066.632,2858.269,2071.411z"/>
			</g>
			<g>
				<path style="fill:#FFFFFF;" d="M739.766,1612.934c-2.86,4.779-9.053,6.334-13.832,3.474c-4.779-2.86-6.334-9.053-3.474-13.832
					c2.86-4.779,9.053-6.334,13.832-3.474C741.071,1601.963,742.627,1608.155,739.766,1612.934z"/>
			</g>
			<g>
				<path style="fill:#FFFFFF;" d="M702.009,1236.438c0,4.093-8.39,7.662-20.922,9.627c-6.327,0.992-11.31,5.975-12.302,12.302
					c-1.965,12.531-5.535,20.922-9.627,20.922c-4.093,0-7.662-8.39-9.627-20.921c-0.992-6.328-5.976-11.311-12.304-12.302
					c-12.541-1.965-20.952-5.535-20.952-9.628c0-4.116,8.403-7.689,20.936-9.641c6.335-0.987,11.328-5.973,12.32-12.308
					c1.965-12.545,5.534-20.934,9.627-20.934c4.092,0,7.662,8.389,9.627,20.934c0.992,6.334,5.984,11.32,12.319,12.307
					C693.626,1228.749,702.009,1232.323,702.009,1236.438z"/>
			</g>
			<g>
				<path style="fill:#FFFFFF;" d="M951.987,950.456c-2.276,3.402-11.234,1.704-22.742-3.63c-5.811-2.693-12.723-1.322-17.065,3.386
					c-8.601,9.323-16.232,14.313-19.634,12.037c-3.402-2.276-1.704-11.234,3.63-22.742c2.693-5.811,1.322-12.724-3.387-17.066
					c-9.331-8.606-14.338-16.249-12.062-19.651c2.288-3.421,11.26-1.719,22.762,3.627c5.814,2.702,12.737,1.333,17.083-3.38
					c8.608-9.335,16.239-14.323,19.641-12.047c3.401,2.275,1.704,11.233-3.638,22.753c-2.697,5.816-1.32,12.736,3.396,17.079
					C949.294,939.404,954.275,947.035,951.987,950.456z"/>
			</g>
			<g>
				
					<ellipse transform="matrix(0.9998 -0.0177 0.0177 0.9998 -55.7341 27.5464)" style="fill:#FFFFFF;" cx="1531.876" cy="3169.566" rx="15.601" ry="15.601"/>
			</g>
		</g>
	</g>
</svg>
