<?xml version="1.0" encoding="utf-8"?>
<svg version="1.1" xmlns="http://www.w3.org/2000/svg" xmlns:xlink="http://www.w3.org/1999/xlink" x="0px" y="0px"
	 viewBox="0 0 3710 3710" style="enable-background:new 0 0 3710 3710;" xml:space="preserve">
<g id="Background">
	<g>
	</g>
</g>
<g id="Illustration">
	<g>
		<linearGradient id="SVGID_1_" gradientUnits="userSpaceOnUse" x1="3496.072" y1="3239.697" x2="1460.9633" y2="1458.9783">
			<stop  offset="0" style="stop-color:#26375a"/>
			<stop  offset="1" style="stop-color:#0ac2af"/>
		</linearGradient>
		<path style="opacity:0.3;fill:url(#SVGID_1_);" d="M3150.209,2314.89c-263.018,619.302-963.637,966.239-1571.215,872.654
			c-98.865-15.229-369.907-60.591-609.877-274.594c-461.958-411.973-560.752-1227.733-188.104-1802.619
			c271.222-418.416,757.416-655.602,1219.395-643.737c99.51,2.555,480.875,18.306,816.029,294.666
			c49.228,40.592,157.804,137.05,255.657,290.073C3301.871,1410.661,3321.621,1911.284,3150.209,2314.89z"/>
		<g>
			<g>
				<g style="opacity:0.3;">
					
						<linearGradient id="SVGID_00000062873800495236374440000003064264968463945404_" gradientUnits="userSpaceOnUse" x1="1768.6609" y1="1033.8291" x2="2505.76" y2="1033.8291" gradientTransform="matrix(0.9682 -0.2503 0.2503 0.9682 -1213.589 323.581)">
						<stop  offset="0" style="stop-color:#00a269"/>
						<stop  offset="1" style="stop-color:#00bdd6"/>
					</linearGradient>
					<path style="fill:url(#SVGID_00000062873800495236374440000003064264968463945404_);" d="M845.486,1159.682
						c-6.324,1.635-12.992-1.741-15.324-7.994c-5.107-13.675-9.693-27.776-13.636-41.909c-1.918-6.876,2.1-14.005,8.974-15.922
						c0.083-0.021,0.164-0.042,0.244-0.063c6.798-1.757,13.782,2.246,15.676,9.04c3.744,13.428,8.103,26.821,12.952,39.812
						c2.497,6.685-0.898,14.132-7.587,16.628C846.356,1159.437,845.922,1159.57,845.486,1159.682z M818.119,1050.478
						c-0.489,0.126-0.992,0.226-1.506,0.296c-7.071,0.962-13.587-3.991-14.549-11.063c-1.974-14.526-3.348-29.281-4.08-43.852
						c-0.359-7.129,5.104-13.175,12.257-13.559c7.129-0.357,13.196,5.135,13.554,12.258c0.697,13.851,2.002,27.866,3.882,41.672
						C828.569,1042.787,824.372,1048.861,818.119,1050.478z M815.478,937.963c-1.393,0.36-2.871,0.492-4.386,0.357
						c-7.108-0.64-12.356-6.916-11.72-14.025c1.302-14.571,3.256-29.268,5.808-43.681c1.249-7.028,7.957-11.708,14.978-10.473
						c7.026,1.245,11.716,7.952,10.472,14.978c-2.424,13.687-4.279,27.64-5.517,41.479
						C824.614,932.192,820.62,936.634,815.478,937.963z M838.067,827.66c-2.302,0.595-4.795,0.561-7.223-0.229
						c-6.786-2.209-10.496-9.503-8.288-16.288c4.536-13.92,9.725-27.811,15.426-41.287c2.785-6.564,10.363-9.639,16.938-6.865
						c6.571,2.78,9.645,10.364,6.865,16.938c-5.415,12.797-10.347,25.991-14.651,39.22
						C845.713,823.505,842.199,826.592,838.067,827.66z M884.685,725.166c-3.229,0.834-6.775,0.427-9.862-1.419
						c-6.129-3.661-8.128-11.596-4.466-17.72c7.49-12.535,15.624-24.93,24.175-36.828c4.16-5.799,12.235-7.125,18.034-2.957
						c5.795,4.165,7.118,12.238,2.955,18.038c-8.13,11.309-15.86,23.089-22.978,35.002
						C890.728,722.321,887.862,724.345,884.685,725.166z M952.811,635.544c-4.181,1.081-8.808,0.045-12.163-3.154
						c-5.166-4.927-5.36-13.104-0.437-18.271c10.093-10.586,20.768-20.874,31.727-30.568c5.349-4.73,13.513-4.228,18.243,1.119
						c4.728,5.342,4.228,13.511-1.117,18.24c-10.413,9.214-20.555,18.983-30.145,29.043
						C957.192,633.765,955.066,634.961,952.811,635.544z M1403.582,487.248c-1.733,0.448-3.583,0.541-5.459,0.212
						c-13.675-2.398-27.64-4.232-41.504-5.445c-7.109-0.623-12.369-6.891-11.744-13.998c0.62-7.111,6.889-12.37,14-11.747
						c14.601,1.278,29.31,3.207,43.711,5.73c7.031,1.233,11.73,7.933,10.497,14.961
						C1412.18,482.117,1408.338,486.019,1403.582,487.248z M1039.048,563.294c-5.19,1.342-10.882-0.659-14.008-5.379
						c-3.942-5.952-2.312-13.97,3.637-17.911c12.195-8.079,24.891-15.725,37.734-22.726c6.281-3.386,14.116-1.11,17.533,5.16
						c3.416,6.266,1.104,14.115-5.163,17.534c-12.198,6.646-24.253,13.907-35.834,21.578
						C1041.717,562.364,1040.399,562.945,1039.048,563.294z M1291.214,480.433c-0.826,0.213-1.684,0.352-2.569,0.398
						c-13.874,0.724-27.901,2.061-41.69,3.962c-7.071,0.973-13.594-3.968-14.569-11.037c-0.972-7.069,3.955-13.624,11.037-14.568
						c14.509-1.999,29.269-3.405,43.868-4.17c7.128-0.372,13.21,5.105,13.581,12.23
						C1301.2,473.488,1297.04,478.927,1291.214,480.433z M1139.262,512.119c-6.314,1.632-12.974-1.73-15.316-7.97
						c-2.509-6.682,0.873-14.131,7.554-16.645c13.68-5.137,27.766-9.753,41.869-13.711c0.086-0.028,0.177-0.051,0.265-0.074
						c6.788-1.755,13.763,2.235,15.67,9.016c1.931,6.873-2.073,14.008-8.946,15.936c-13.394,3.764-26.773,8.15-39.771,13.033
						C1140.148,511.864,1139.705,512.004,1139.262,512.119z"/>
					
						<linearGradient id="SVGID_00000008832947220557516910000010851491144949006985_" gradientUnits="userSpaceOnUse" x1="2541.5901" y1="839.7031" x2="2584.6377" y2="839.7031" gradientTransform="matrix(0.9682 -0.2503 0.2503 0.9682 -1213.589 323.581)">
						<stop  offset="0" style="stop-color:#00a269"/>
						<stop  offset="1" style="stop-color:#018657"/>
					</linearGradient>
					<path style="fill:url(#SVGID_00000008832947220557516910000010851491144949006985_);" d="M1491.178,510.941
						c-2.463,0.637-5.14,0.557-7.709-0.395c-6.248-2.316-12.648-4.536-19.024-6.611c-6.787-2.203-10.505-9.496-8.299-16.281
						c2.202-6.789,9.496-10.515,16.284-8.297c6.707,2.177,13.437,4.514,20.013,6.949c6.691,2.478,10.11,9.916,7.631,16.604
						C1498.548,507.04,1495.137,509.918,1491.178,510.941z"/>
				</g>
				<g style="opacity:0.3;">
					
						<linearGradient id="SVGID_00000037689984176083817180000002022799331370966948_" gradientUnits="userSpaceOnUse" x1="2765.022" y1="1168.6519" x2="2794.5613" y2="1168.6519" gradientTransform="matrix(0.9682 -0.2503 0.2503 0.9682 -1213.589 323.581)">
						<stop  offset="0" style="stop-color:#00a269"/>
						<stop  offset="1" style="stop-color:#018657"/>
					</linearGradient>
					<path style="fill:url(#SVGID_00000037689984176083817180000002022799331370966948_);" d="M1777.87,781.189
						c-6.039,1.561-12.485-1.444-15.063-7.342c-2.665-6.105-5.504-12.258-8.438-18.283c-3.124-6.419-0.454-14.153,5.962-17.276
						c6.444-3.136,14.154-0.452,17.277,5.962c3.087,6.345,6.078,12.824,8.886,19.252c2.856,6.54-0.13,14.158-6.67,17.016
						C1779.182,780.798,1778.527,781.019,1777.87,781.189z"/>
					
						<linearGradient id="SVGID_00000000186293946885659900000001740334439095143554_" gradientUnits="userSpaceOnUse" x1="2041.6442" y1="1504.6542" x2="2800.8728" y2="1504.6542" gradientTransform="matrix(0.9682 -0.2503 0.2503 0.9682 -1213.589 323.581)">
						<stop  offset="0" style="stop-color:#00a269"/>
						<stop  offset="1" style="stop-color:#018657"/>
					</linearGradient>
					<path style="fill:url(#SVGID_00000000186293946885659900000001740334439095143554_);" d="M1443.242,1470.168
						c-5.757,1.488-11.561,2.884-17.411,4.188c-6.967,1.55-13.873-2.838-15.425-9.803c-1.553-6.966,2.863-13.905,9.801-15.427
						c13.5-3.01,26.847-6.559,39.82-10.6c6.824-2.113,14.058,1.679,16.182,8.492c2.124,6.818-1.68,14.064-8.494,16.185
						C1459.69,1465.703,1451.455,1468.045,1443.242,1470.168z M1358.38,1484.611c-0.699,0.181-1.425,0.305-2.17,0.368
						c-14.368,1.206-28.948,1.815-43.331,1.81c-7.135-0.001-12.92-5.789-12.918-12.923c0.003-7.138,5.799-12.943,12.928-12.919
						c13.661,0.004,27.51-0.578,41.165-1.719c7.111-0.597,13.359,4.686,13.956,11.794
						C1368.541,1477.391,1364.364,1483.064,1358.38,1484.611z M1531.082,1438.521c-5.899,1.525-12.233-1.306-14.917-7.02
						c-3.034-6.463-0.255-14.158,6.205-17.194c12.359-5.801,24.636-12.213,36.494-19.063c6.187-3.56,14.085-1.451,17.654,4.728
						c3.569,6.184,1.451,14.088-4.73,17.656c-12.487,7.211-25.419,13.963-38.433,20.075
						C1532.612,1438.053,1531.85,1438.323,1531.082,1438.521z M1247.606,1481.654c-1.588,0.411-3.281,0.519-5.005,0.282
						c-14.268-1.979-28.625-4.593-42.668-7.767c-6.96-1.574-11.327-8.491-9.752-15.451c1.573-6.966,8.486-11.333,15.453-9.756
						c13.334,3.013,26.966,5.496,40.517,7.374c7.069,0.977,12.005,7.507,11.025,14.575
						C1256.435,1476.254,1252.525,1480.382,1247.606,1481.654z M1625.473,1380.65c-4.838,1.251-10.177-0.383-13.442-4.581
						c-4.382-5.635-3.365-13.755,2.27-18.136c10.773-8.374,21.339-17.33,31.408-26.617c5.246-4.839,13.422-4.512,18.262,0.739
						c4.836,5.246,4.506,13.418-0.74,18.256c-10.598,9.778-21.723,19.207-33.067,28.026
						C1628.73,1379.453,1627.13,1380.221,1625.473,1380.65z M1704.882,1303.465c-3.868,1-8.145,0.197-11.464-2.537
						c-5.506-4.542-6.29-12.686-1.749-18.193c8.707-10.562,17.07-21.613,24.858-32.844c4.058-5.872,12.107-7.332,17.982-3.261
						c5.866,4.068,7.323,12.116,3.259,17.985c-8.196,11.821-16.996,23.45-26.16,34.562
						C1709.806,1301.364,1707.433,1302.806,1704.882,1303.465z M1765.575,1210.806c-2.942,0.76-6.16,0.492-9.084-0.994
						c-6.362-3.231-8.9-11.011-5.666-17.373c6.207-12.214,11.966-24.819,17.115-37.474c2.69-6.608,10.222-9.791,16.842-7.096
						c6.609,2.693,9.787,10.229,7.096,16.842c-5.422,13.315-11.481,26.586-18.01,39.436
						C1772.118,1207.587,1769.04,1209.91,1765.575,1210.806z M1804.612,1107.122c-2.038,0.527-4.232,0.562-6.417,0.006
						c-6.916-1.763-11.091-8.797-9.327-15.712c3.385-13.268,6.239-26.827,8.484-40.306c1.173-7.039,7.84-11.797,14.868-10.626
						c7.042,1.172,11.798,7.832,10.624,14.871c-2.365,14.198-5.37,28.479-8.932,42.445
						C1812.704,1102.533,1809.028,1105.981,1804.612,1107.122z M1819.942,997.355c-1.146,0.296-2.353,0.436-3.595,0.402
						c-7.133-0.195-12.76-6.138-12.562-13.27c0.373-13.653,0.17-27.5-0.61-41.167c-0.406-7.127,5.064-13.228,12.167-13.635
						c7.126-0.408,13.232,5.042,13.638,12.169c0.82,14.387,1.035,28.966,0.639,43.339
						C1829.457,991.084,1825.376,995.951,1819.942,997.355z M1810.788,886.978c-0.257,0.066-0.518,0.123-0.781,0.176
						c-7.005,1.362-13.789-3.214-15.149-10.219c-1.923-9.889-4.173-19.834-6.689-29.57c-0.911-3.524-1.862-7.032-2.843-10.516
						c-1.935-6.872,2.064-14.011,8.934-15.943c6.917-2.095,14.006,2.063,15.942,8.929c1.034,3.669,2.031,7.353,2.99,11.063
						c2.647,10.239,5.014,20.706,7.035,31.107C1821.538,878.745,1817.349,885.282,1810.788,886.978z"/>
					
						<linearGradient id="SVGID_00000123400372501027466900000012579982222132716947_" gradientUnits="userSpaceOnUse" x1="1965.9681" y1="1664.6654" x2="2008.4667" y2="1664.6654" gradientTransform="matrix(0.9682 -0.2503 0.2503 0.9682 -1213.589 323.581)">
						<stop  offset="0" style="stop-color:#00a269"/>
						<stop  offset="1" style="stop-color:#018657"/>
					</linearGradient>
					<path style="fill:url(#SVGID_00000123400372501027466900000012579982222132716947_);" d="M1139.917,1454.259
						c-2.488,0.643-5.188,0.554-7.772-0.416c-6.549-2.462-13.169-5.11-19.677-7.87c-6.573-2.785-9.641-10.37-6.856-16.94
						c2.788-6.57,10.364-9.645,16.941-6.856c6.183,2.62,12.472,5.134,18.689,7.474c6.678,2.508,10.059,9.96,7.548,16.641
						C1147.248,1450.389,1143.851,1453.242,1139.917,1454.259z"/>
				</g>
				<g>
					
						<linearGradient id="SVGID_00000100365790375032516430000016460356112646260638_" gradientUnits="userSpaceOnUse" x1="4034.9592" y1="2023.1499" x2="1326.8256" y2="834.2156" gradientTransform="matrix(0.9682 -0.2503 0.2503 0.9682 -1213.589 323.581)">
						<stop  offset="0" style="stop-color:#00a269"/>
						<stop  offset="1" style="stop-color:#00bdd6"/>
					</linearGradient>
					<path style="fill:url(#SVGID_00000100365790375032516430000016460356112646260638_);" d="M1119.288,1304.775
						c2.076,1.525,4.893,1.565,7.011,0.099l60.449-41.831c31.575,13.473,65.526,22.01,100.747,24.767l34.188,65.023
						c1.199,2.282,3.714,3.549,6.26,3.16l87.159-13.35c2.548-0.391,4.566-2.355,5.028-4.888l13.157-72.276
						c32.782-13.174,62.621-31.48,88.715-53.788l70.199,21.819c2.46,0.765,5.135-0.116,6.66-2.192l52.191-71.071
						c1.526-2.078,1.565-4.894,0.098-7.012l-41.83-60.448c13.474-31.575,22.01-65.527,24.766-100.748l65.025-34.189
						c2.281-1.199,3.549-3.712,3.159-6.26l-13.351-87.16c-0.39-2.547-2.353-4.566-4.889-5.027l-72.276-13.157
						c-13.173-32.782-31.478-62.621-53.787-88.714l21.819-70.2c0.764-2.459-0.116-5.135-2.193-6.659l-71.071-52.19
						c-2.077-1.527-4.893-1.565-7.012-0.099l-60.449,41.831c-31.574-13.475-65.526-22.011-100.748-24.767l-34.188-65.025
						c-1.199-2.28-3.712-3.549-6.26-3.16l-87.16,13.352c-2.547,0.389-4.566,2.353-5.027,4.888l-13.157,72.276
						c-32.782,13.172-62.621,31.479-88.715,53.788l-70.198-21.819c-2.461-0.766-5.137,0.116-6.661,2.192l-52.19,71.071
						c-1.525,2.076-1.565,4.892-0.099,7.012l41.83,60.448c-13.474,31.575-22.01,65.527-24.766,100.748l-65.025,34.188
						c-2.28,1.198-3.55,3.713-3.158,6.26l13.35,87.158c0.39,2.547,2.353,4.566,4.888,5.028l72.276,13.157
						c13.173,32.781,31.48,62.62,53.787,88.714l-21.818,70.199c-0.765,2.461,0.115,5.135,2.192,6.661L1119.288,1304.775z"/>
					<path style="opacity:0.56;fill:#FFFFFF;" d="M1335.032,1052.461c-41.83,10.812-86.5-10.41-103.786-51.375
						c-18.999-45.032,2.178-97.117,47.205-116.118c21.814-9.21,45.906-9.364,67.833-0.448c21.932,8.914,39.08,25.837,48.282,47.651
						c19,45.032-2.178,97.117-47.204,116.118C1343.301,1050,1339.179,1051.389,1335.032,1052.461z M1296.036,900.787
						c-3.23,0.835-6.417,1.909-9.548,3.229c-34.523,14.565-50.758,54.508-36.194,89.028c14.568,34.524,54.502,50.777,89.031,36.195
						c34.523-14.565,50.758-54.507,36.194-89.028c-7.058-16.727-20.203-29.7-37.02-36.537
						C1324.831,898.12,1310.065,897.161,1296.036,900.787z"/>
					<path style="opacity:0.56;fill:#FFFFFF;" d="M1368.823,1175.949c-7.184,1.857-14.504,3.364-21.938,4.503l0,0
						c-2.34,0.36-4.687,0.68-7.038,0.964c-11.592,1.396-23.277,1.867-34.874,1.407c-0.158-0.006-0.316-0.012-0.474-0.018
						c-0.448-0.02-0.896-0.04-1.346-0.064c-0.873-0.04-1.746-0.091-2.618-0.142c-2.293-0.137-4.146-1.749-4.694-3.86
						c-0.133-0.513-0.187-1.057-0.154-1.613c0.171-2.849,2.626-5.011,5.471-4.845c14.664,0.887,29.52,0.196,44.158-2.05
						c72.717-11.126,130.886-58.947,158.582-121.727c15.409-34.917,21.386-74.465,15.189-114.908
						c-1.085-7.092-2.52-14.078-4.294-20.929c-11.925-46.115-39.121-86.391-78.032-114.962
						c-44.694-32.822-99.496-46.275-154.305-37.879c-113.196,17.351-191.103,123.49-173.772,236.634
						c1.068,6.976,2.486,13.873,4.243,20.661c7.609,29.416,21.569,56.84,40.976,80.254c0.501,0.606,0.841,1.289,1.024,2.003
						c0.485,1.877-0.112,3.955-1.706,5.274c-2.205,1.816-5.456,1.525-7.28-0.683c-20.374-24.583-35.035-53.375-43.022-84.256
						c-1.844-7.125-3.332-14.363-4.456-21.685c-18.197-118.791,63.676-230.232,182.424-248.423
						c57.542-8.815,115.07,5.309,161.991,39.766c40.85,29.994,69.4,72.276,81.921,120.688c1.86,7.194,3.366,14.526,4.508,21.968
						c8.813,57.545-5.308,115.075-39.763,161.995C1459.544,1134.881,1417.247,1163.432,1368.823,1175.949z"/>
				</g>
			</g>
			<g>
				<g style="opacity:0.3;">
					
						<linearGradient id="SVGID_00000033349858158993861590000015079686181557739657_" gradientUnits="userSpaceOnUse" x1="1330.1976" y1="1647.7112" x2="1351.2065" y2="1647.7112" gradientTransform="matrix(0.9682 -0.2503 0.2503 0.9682 -1213.589 323.581)">
						<stop  offset="0" style="stop-color:#00a269"/>
						<stop  offset="1" style="stop-color:#018657"/>
					</linearGradient>
					<path style="fill:url(#SVGID_00000033349858158993861590000015079686181557739657_);" d="M503.751,1599.761
						c-3.343,0.864-6.986-0.521-8.846-3.638c-3.475-5.816-6.822-11.818-9.945-17.838c-2.029-3.911-0.504-8.725,3.41-10.76
						c3.911-2.049,8.73-0.501,10.76,3.41c2.976,5.736,6.165,11.456,9.48,17.008c2.26,3.779,1.023,8.679-2.758,10.945
						C505.179,1599.287,504.472,1599.574,503.751,1599.761z"/>
					
						<linearGradient id="SVGID_00000009555015898067180070000012802139082901482882_" gradientUnits="userSpaceOnUse" x1="1321.6943" y1="1411.6906" x2="1733.4728" y2="1411.6906" gradientTransform="matrix(0.9682 -0.2503 0.2503 0.9682 -1213.589 323.581)">
						<stop  offset="0" style="stop-color:#00a269"/>
						<stop  offset="1" style="stop-color:#018657"/>
					</linearGradient>
					<path style="fill:url(#SVGID_00000009555015898067180070000012802139082901482882_);" d="M477.236,1544.383
						c-3.916,1.012-8.041-1.085-9.473-4.958c-4.052-10.941-7.587-22.216-10.505-33.505c-0.615-2.377-1.204-4.769-1.774-7.174
						c-1.01-4.295,1.915-8.489,5.933-9.609c4.291-1.013,8.588,1.645,9.604,5.93c0.542,2.299,1.105,4.586,1.692,6.857
						c2.784,10.769,6.155,21.522,10.015,31.956c1.533,4.136-0.578,8.724-4.71,10.258
						C477.757,1544.232,477.496,1544.316,477.236,1544.383z M458.199,1463.725c-0.366,0.094-0.745,0.169-1.128,0.212
						c-4.384,0.481-8.329-2.678-8.813-7.06c-1.556-14.058-2.252-28.337-2.068-42.433c0.055-4.41,3.699-7.928,8.084-7.878
						c4.411,0.059,7.933,3.673,7.877,8.083c-0.175,13.45,0.492,27.069,1.973,40.476
						C464.563,1459.118,461.98,1462.748,458.199,1463.725z M459.289,1380.86c-0.981,0.254-2.026,0.322-3.09,0.179
						c-4.366-0.603-7.414-4.638-6.811-9.004c1.94-13.987,4.771-28.01,8.431-41.667c1.14-4.264,5.504-6.785,9.776-5.643
						c4.255,1.138,6.784,5.517,5.645,9.771c-3.488,13.026-6.193,26.389-8.038,39.731
						C464.743,1377.526,462.327,1380.075,459.289,1380.86z M480.719,1300.795c-1.6,0.414-3.339,0.332-4.988-0.329
						c-4.084-1.657-6.057-6.316-4.399-10.399c5.318-13.112,11.493-26.003,18.363-38.326c2.15-3.848,7.016-5.219,10.857-3.08
						c3.851,2.144,5.232,7.004,3.085,10.859c-6.55,11.741-12.443,24.044-17.511,36.544
						C485.138,1298.502,483.085,1300.184,480.719,1300.795z M521.053,1228.395c-2.234,0.578-4.702,0.185-6.713-1.284
						c-3.557-2.598-4.332-7.591-1.735-11.152c8.339-11.406,17.458-22.409,27.108-32.697c3.014-3.227,8.067-3.381,11.282-0.364
						c3.215,3.017,3.378,8.071,0.364,11.281c-9.208,9.819-17.908,20.312-25.861,31.199
						C524.364,1226.928,522.777,1227.95,521.053,1228.395z M577.729,1167.986c-2.894,0.748-6.095-0.172-8.137-2.623
						c-2.819-3.385-2.356-8.416,1.028-11.238c10.859-9.038,22.386-17.484,34.258-25.094c3.729-2.373,8.65-1.293,11.029,2.415
						c2.379,3.708,1.297,8.649-2.412,11.025c-11.323,7.258-22.309,15.306-32.661,23.923
						C579.898,1167.176,578.835,1167.7,577.729,1167.986z M647.436,1123.279c-3.622,0.936-7.517-0.786-9.189-4.282
						c-1.902-3.977-0.219-8.743,3.756-10.648c12.703-6.077,25.955-11.434,39.389-15.93c4.212-1.331,8.709,0.865,10.103,5.045
						c1.398,4.179-0.858,8.7-5.037,10.101c-12.818,4.279-25.456,9.39-37.568,15.186
						C648.414,1122.979,647.927,1123.152,647.436,1123.279z M767.16,1091.286c-0.445,0.115-0.911,0.195-1.39,0.231
						c-11.602,0.898-23.358,2.447-34.945,4.605c-1.757,0.317-3.478,0.649-5.191,1.003c-4.323,0.876-8.536-1.907-9.415-6.228
						c-0.889-4.328,1.901-8.671,6.224-9.418c1.829-0.368,3.656-0.727,5.498-1.059c12.106-2.251,24.431-3.876,36.597-4.814
						c4.397-0.339,8.233,2.944,8.572,7.341C773.415,1086.86,770.839,1090.336,767.16,1091.286z"/>
				</g>
				<g style="opacity:0.3;">
					
						<linearGradient id="SVGID_00000084500733370686134880000000339199105481415063_" gradientUnits="userSpaceOnUse" x1="1505.4514" y1="1806.4385" x2="1975.4261" y2="1806.4385" gradientTransform="matrix(0.9682 -0.2503 0.2503 0.9682 -1213.589 323.581)">
						<stop  offset="0" style="stop-color:#00a269"/>
						<stop  offset="1" style="stop-color:#018657"/>
					</linearGradient>
					<path style="fill:url(#SVGID_00000084500733370686134880000000339199105481415063_);" d="M881.75,1751.891
						c-4.219,1.09-8.545-1.414-9.696-5.633c-1.159-4.25,1.349-8.641,5.603-9.797c12.805-3.487,25.505-7.785,37.748-12.776
						c4.071-1.616,8.742,0.292,10.406,4.379c1.664,4.086-0.301,8.74-4.379,10.406c-12.842,5.227-26.155,9.739-39.577,13.394
						C881.822,1751.873,881.784,1751.883,881.75,1751.891z M841.778,1760.235c-0.28,0.072-0.559,0.128-0.849,0.171
						c-13.747,2.024-27.757,3.23-41.64,3.59c-4.408,0.109-8.071-3.364-8.183-7.771c-0.119-4.414,3.389-8.065,7.769-8.191
						c13.248-0.341,26.616-1.494,39.735-3.42c4.359-0.644,8.415,2.374,9.055,6.733
						C848.263,1755.427,845.672,1759.229,841.778,1760.235z M957.212,1721.115c-3.426,0.886-7.151-0.599-8.961-3.834
						c-2.148-3.84-0.776-8.703,3.071-10.857c11.586-6.489,22.874-13.729,33.551-21.538c3.577-2.591,8.553-1.824,11.152,1.739
						c2.601,3.554,1.825,8.553-1.733,11.155c-11.193,8.182-23.029,15.774-35.176,22.57
						C958.5,1720.694,957.861,1720.947,957.212,1721.115z M760.26,1762.29c-0.879,0.227-1.812,0.307-2.769,0.217
						c-13.84-1.342-27.736-3.554-41.298-6.578c-4.304-0.957-7.014-5.223-6.057-9.528c0.961-4.289,5.226-7.002,9.525-6.052
						c12.933,2.88,26.178,4.987,39.374,6.27c4.386,0.428,7.6,4.331,7.172,8.716C765.873,1758.762,763.414,1761.475,760.26,1762.29z
						 M1022.99,1673.012c-2.736,0.707-5.765-0.063-7.828-2.268c-3.019-3.22-2.851-8.271,0.364-11.284
						c9.668-9.052,18.88-18.792,27.382-28.959c2.831-3.389,7.866-3.829,11.246-0.999c3.38,2.829,3.829,7.866,0.999,11.246
						c-8.92,10.654-18.576,20.871-28.709,30.365C1025.433,1672.059,1024.239,1672.689,1022.99,1673.012z M1075.312,1610.532
						c-2.094,0.541-4.396,0.234-6.349-1.032c-3.697-2.401-4.749-7.346-2.347-11.042c7.233-11.136,13.853-22.806,19.676-34.681
						c1.942-3.964,6.729-5.596,10.681-3.654c3.959,1.94,5.592,6.718,3.653,10.673c-6.104,12.454-13.041,24.689-20.62,36.357
						C1078.874,1608.895,1077.176,1610.051,1075.312,1610.532z M1111.162,1537.311c-1.471,0.38-3.065,0.35-4.61-0.193
						c-4.165-1.443-6.368-5.994-4.921-10.16c4.364-12.536,7.989-25.453,10.777-38.386c0.933-4.299,5.178-7.047,9.485-6.115
						c4.31,0.931,7.049,5.174,6.119,9.487c-2.928,13.558-6.728,27.107-11.298,40.26
						C1115.8,1534.824,1113.659,1536.665,1111.162,1537.311z"/>
					
						<linearGradient id="SVGID_00000057115622903191099030000000438661994060425895_" gradientUnits="userSpaceOnUse" x1="1453.7888" y1="1835.8252" x2="1485.9301" y2="1835.8252" gradientTransform="matrix(0.9682 -0.2503 0.2503 0.9682 -1213.589 323.581)">
						<stop  offset="0" style="stop-color:#00a269"/>
						<stop  offset="1" style="stop-color:#018657"/>
					</linearGradient>
					<path style="fill:url(#SVGID_00000057115622903191099030000000438661994060425895_);" d="M680.315,1744.464
						c-1.491,0.385-3.107,0.344-4.668-0.211c-6.437-2.289-12.833-4.782-19.017-7.402c-4.056-1.721-5.955-6.407-4.236-10.466
						c1.729-4.045,6.405-5.946,10.467-4.235c5.896,2.502,12,4.877,18.141,7.065c4.154,1.478,6.32,6.046,4.841,10.196
						C684.919,1742.002,682.794,1743.824,680.315,1744.464z"/>
				</g>
				<g>
					
						<linearGradient id="SVGID_00000048493460719569456640000006974099309982764428_" gradientUnits="userSpaceOnUse" x1="3822.4873" y1="2506.3528" x2="1114.3555" y2="1317.4192" gradientTransform="matrix(0.9682 -0.2503 0.2503 0.9682 -1213.589 323.581)">
						<stop  offset="0" style="stop-color:#00a269"/>
						<stop  offset="1" style="stop-color:#00bdd6"/>
					</linearGradient>
					<path style="fill:url(#SVGID_00000048493460719569456640000006974099309982764428_);" d="M660.935,1642.975
						c1.389,1.02,3.274,1.047,4.691,0.066l40.45-27.991c21.128,9.016,43.847,14.729,67.415,16.573l22.877,43.51
						c0.802,1.526,2.484,2.375,4.189,2.114l58.323-8.933c1.705-0.262,3.055-1.575,3.365-3.271l8.803-48.364
						c21.936-8.815,41.903-21.064,59.364-35.992l46.974,14.6c1.646,0.511,3.436-0.078,4.457-1.468l34.923-47.557
						c1.021-1.391,1.047-3.275,0.066-4.692l-27.991-40.449c9.017-21.128,14.728-43.848,16.573-67.416l43.511-22.877
						c1.526-0.803,2.375-2.484,2.114-4.189l-8.934-58.324c-0.261-1.705-1.575-3.056-3.271-3.364l-48.364-8.804
						c-8.814-21.936-21.064-41.903-35.992-59.363l14.6-46.975c0.511-1.646-0.078-3.436-1.467-4.456l-47.558-34.924
						c-1.389-1.021-3.274-1.047-4.691-0.066l-40.45,27.992c-21.128-9.018-43.847-14.729-67.416-16.573l-22.878-43.512
						c-0.802-1.526-2.484-2.375-4.189-2.114l-58.324,8.934c-1.704,0.261-3.055,1.574-3.364,3.271l-8.803,48.364
						c-21.936,8.814-41.904,21.065-59.365,35.992l-46.973-14.6c-1.647-0.512-3.438,0.078-4.458,1.467l-34.923,47.557
						c-1.02,1.39-1.047,3.274-0.066,4.692l27.99,40.449c-9.017,21.128-14.728,43.847-16.572,67.416l-43.512,22.877
						c-1.525,0.802-2.375,2.484-2.112,4.189l8.933,58.322c0.262,1.705,1.575,3.055,3.271,3.365l48.364,8.804
						c8.815,21.935,21.064,41.902,35.991,59.364l-14.599,46.974c-0.512,1.647,0.078,3.436,1.467,4.458L660.935,1642.975z"/>
					<path style="opacity:0.56;fill:#FFFFFF;" d="M805.483,1475.196c-12.466,3.222-25.584,2.371-37.728-2.565
						c-14.938-6.073-26.617-17.603-32.885-32.462c-12.941-30.661,1.481-66.141,32.151-79.092
						c30.736-12.904,66.159,1.488,79.098,32.157c6.272,14.859,6.38,31.27,0.305,46.205c-6.072,14.942-17.6,26.624-32.464,32.89
						C811.183,1473.497,808.347,1474.455,805.483,1475.196z M779.404,1373.695c-2.079,0.538-4.141,1.232-6.179,2.089
						c-22.559,9.526-33.167,35.623-23.647,58.184c4.611,10.924,13.201,19.412,24.188,23.873c10.993,4.468,23.058,4.377,33.993-0.221
						l0,0c10.928-4.612,19.411-13.205,23.877-24.19c4.468-10.993,4.388-23.064-0.225-33.996
						C822.753,1378.913,800.364,1368.277,779.404,1373.695z"/>
					<path style="opacity:0.56;fill:#FFFFFF;" d="M828.892,1561.18c-4.89,1.264-9.882,2.288-14.977,3.074
						c-10.117,1.552-20.402,2.078-30.596,1.557c-0.458-0.027-0.916-0.053-1.374-0.08c-3.541-0.212-6.402-2.701-7.249-5.96
						c-0.205-0.792-0.289-1.632-0.237-2.49c0.264-4.4,4.056-7.731,8.448-7.481c9.512,0.577,19.129,0.127,28.583-1.326l0.004-0.001
						c0.519-0.078,1.04-0.165,1.554-0.249c22.345-3.642,42.936-12.716,60.361-26.237c9.458-7.34,17.983-16,25.341-25.832
						c0.06-0.08,0.12-0.159,0.18-0.239c0.181-0.249,0.365-0.489,0.543-0.736c21.245-28.935,29.956-64.411,24.519-99.894
						c-0.7-4.593-1.63-9.111-2.777-13.548c-7.721-29.853-25.329-55.926-50.519-74.428c-28.936-21.246-64.411-29.949-99.89-24.513
						c-35.457,5.445-66.726,24.364-87.977,53.293c-21.245,28.935-29.956,64.411-24.519,99.894c0.688,4.515,1.609,8.98,2.744,13.371
						c4.927,19.047,13.963,36.797,26.527,51.953c0.773,0.935,1.3,1.99,1.581,3.093c0.749,2.898-0.172,6.107-2.633,8.144
						c-3.401,2.803-8.423,2.346-11.242-1.055c-14.056-16.96-24.17-36.823-29.684-58.125c-1.272-4.92-2.301-9.911-3.074-14.961
						c-6.081-39.704,3.663-79.392,27.437-111.766c23.772-32.366,58.698-53.567,98.421-59.623
						c39.699-6.084,79.387,3.656,111.758,27.435c28.184,20.691,47.881,49.863,56.518,83.263c1.282,4.958,2.324,10.018,3.111,15.152
						C951.541,1469.725,902.613,1542.125,828.892,1561.18z"/>
				</g>
			</g>
			<g>
				<g style="opacity:0.3;">
					
						<linearGradient id="SVGID_00000053515714089957176230000016702168037654731163_" gradientUnits="userSpaceOnUse" x1="-1704.7059" y1="8363.6719" x2="-1685.9137" y2="8363.6719" gradientTransform="matrix(-0.9525 0.3044 -0.3044 -0.9525 3288.5769 9392.9922)">
						<stop  offset="0" style="stop-color:#00a269"/>
						<stop  offset="1" style="stop-color:#018657"/>
					</linearGradient>
					<path style="fill:url(#SVGID_00000053515714089957176230000016702168037654731163_);" d="M2350.512,896.203
						c2.942-0.94,6.265,0.113,8.083,2.803c3.396,5.019,6.688,10.21,9.779,15.428c2.009,3.391,0.89,7.766-2.503,9.78
						c-3.389,2.027-7.771,0.888-9.78-2.503c-2.946-4.972-6.083-9.92-9.323-14.711c-2.209-3.261-1.351-7.699,1.912-9.913
						C2349.261,896.698,2349.878,896.406,2350.512,896.203z"/>
					
						<linearGradient id="SVGID_00000094614498360278216750000001798069788125612169_" gradientUnits="userSpaceOnUse" x1="-1712.3124" y1="8152.5552" x2="-1343.9863" y2="8152.5552" gradientTransform="matrix(-0.9525 0.3044 -0.3044 -0.9525 3288.5769 9392.9922)">
						<stop  offset="0" style="stop-color:#00a269"/>
						<stop  offset="1" style="stop-color:#018657"/>
					</linearGradient>
					<path style="fill:url(#SVGID_00000094614498360278216750000001798069788125612169_);" d="M2376.979,944.32
						c3.446-1.101,7.236,0.564,8.709,3.95c4.17,9.566,7.894,19.457,11.068,29.391c0.668,2.092,1.315,4.198,1.945,6.317
						c1.118,3.785-1.283,7.677-4.814,8.879c-3.78,1.12-7.752-1.036-8.875-4.812c-0.6-2.026-1.217-4.039-1.856-6.038
						c-3.028-9.477-6.581-18.909-10.553-28.032c-1.577-3.617,0.077-7.82,3.689-9.398
						C2376.522,944.481,2376.75,944.393,2376.979,944.32z M2398.042,1015.388c0.322-0.103,0.657-0.188,0.997-0.246
						c3.891-0.651,7.572,1.972,8.226,5.861c2.098,12.475,3.438,25.191,3.984,37.788c0.173,3.941-2.904,7.266-6.822,7.442
						c-3.942,0.169-7.269-2.88-7.442-6.821c-0.521-12.019-1.802-24.147-3.8-36.046
						C2392.591,1019.823,2394.715,1016.452,2398.042,1015.388z M2401.242,1089.442c0.863-0.276,1.793-0.389,2.75-0.315
						c3.929,0.318,6.854,3.768,6.536,7.697c-1.027,12.588-2.85,25.253-5.43,37.633c-0.803,3.865-4.573,6.336-8.446,5.532
						c-3.857-0.802-6.336-4.585-5.533-8.442c2.458-11.808,4.201-23.877,5.176-35.884
						C2396.54,1092.693,2398.569,1090.296,2401.242,1089.442z M2386.138,1162.019c1.408-0.45,2.965-0.465,4.47,0.043
						c3.73,1.274,5.727,5.335,4.453,9.065c-4.088,11.977-8.954,23.8-14.468,35.15c-1.726,3.545-6.002,5.014-9.541,3.297
						c-3.547-1.721-5.024-5.991-3.302-9.542c5.258-10.814,9.9-22.098,13.797-33.516
						C2382.308,1164.289,2384.057,1162.684,2386.138,1162.019z M2353.768,1228.703c1.966-0.628,4.19-0.402,6.059,0.808
						c3.307,2.141,4.251,6.56,2.111,9.872c-6.873,10.606-14.461,20.891-22.561,30.563c-2.529,3.033-7.033,3.426-10.056,0.893
						c-3.023-2.532-3.423-7.037-0.893-10.056c7.728-9.232,14.968-19.041,21.522-29.164
						C2350.884,1230.18,2352.25,1229.188,2353.768,1228.703z M2306.199,1285.503c2.547-0.814,5.451-0.153,7.398,1.932
						c2.688,2.881,2.528,7.396-0.352,10.088c-9.242,8.618-19.11,16.741-29.329,24.134c-3.211,2.307-7.659,1.591-9.971-1.6
						c-2.311-3.192-1.594-7.658,1.598-9.967c9.746-7.052,19.15-14.792,27.961-23.009
						C2304.302,1286.336,2305.226,1285.814,2306.199,1285.503z M2246.202,1328.937c3.187-1.018,6.752,0.323,8.422,3.361
						c1.899,3.455,0.636,7.796-2.818,9.698c-11.038,6.067-22.602,11.518-34.372,16.209c-3.695,1.4-7.821-0.334-9.276-3.996
						c-1.459-3.662,0.328-7.812,3.989-9.274c11.231-4.467,22.259-9.668,32.783-15.453
						C2245.344,1329.255,2245.771,1329.075,2246.202,1328.937z M2140.901,1363.537c0.392-0.125,0.804-0.22,1.229-0.276
						c10.315-1.386,20.735-3.361,30.974-5.872c1.553-0.372,3.073-0.755,4.585-1.157c3.816-1,7.719,1.273,8.722,5.088
						c1.011,3.82-1.261,7.839-5.084,8.724c-1.615,0.421-3.228,0.834-4.857,1.223c-10.698,2.62-21.621,4.691-32.439,6.143
						c-3.909,0.525-7.5-2.215-8.024-6.123C2135.538,1367.804,2137.663,1364.571,2140.901,1363.537z"/>
				</g>
				<g style="opacity:0.3;">
					
						<linearGradient id="SVGID_00000105410796848313526530000004690746306747998597_" gradientUnits="userSpaceOnUse" x1="-1547.9435" y1="8505.6475" x2="-1127.561" y2="8505.6475" gradientTransform="matrix(-0.9525 0.3044 -0.3044 -0.9525 3288.5769 9392.9922)">
						<stop  offset="0" style="stop-color:#00a269"/>
						<stop  offset="1" style="stop-color:#018657"/>
					</linearGradient>
					<path style="fill:url(#SVGID_00000105410796848313526530000004690746306747998597_);" d="M2005.298,779.391
						c3.712-1.186,7.702,0.833,8.942,4.542c1.249,3.736-0.77,7.785-4.51,9.031c-11.259,3.759-22.384,8.236-33.065,13.31
						c-3.554,1.648-7.821,0.18-9.513-3.386c-1.692-3.565-0.172-7.82,3.386-9.513c11.205-5.315,22.866-10.014,34.667-13.954
						C2005.235,779.411,2005.268,779.401,2005.298,779.391z M2040.573,769.927c0.246-0.079,0.493-0.142,0.75-0.195
						c12.174-2.5,24.625-4.283,37.004-5.303c3.931-0.319,7.376,2.597,7.699,6.527c0.328,3.935-2.62,7.373-6.525,7.706
						c-11.813,0.972-23.693,2.675-35.311,5.056c-3.86,0.794-7.634-1.696-8.425-5.556
						C2035.023,774.547,2037.146,771.022,2040.573,769.927z M1939.461,810.676c3.015-0.964,6.416,0.175,8.195,2.973
						c2.112,3.321,1.132,7.733-2.195,9.85c-10.02,6.378-19.734,13.412-28.876,20.923c-3.064,2.494-7.546,2.06-10.047-0.991
						c-2.502-3.043-2.06-7.546,0.986-10.049c9.583-7.871,19.771-15.247,30.275-21.926
						C1938.332,811.117,1938.89,810.858,1939.461,810.676z M2113.264,763.986c0.773-0.247,1.602-0.366,2.462-0.333
						c12.426,0.501,24.947,1.777,37.21,3.794c3.892,0.638,6.526,4.311,5.889,8.204c-0.642,3.879-4.314,6.516-8.201,5.884
						c-11.694-1.92-23.628-3.134-35.477-3.616c-3.938-0.161-7.005-3.484-6.844-7.422
						C2108.429,767.419,2110.489,764.873,2113.264,763.986z M1883.144,856.944c2.407-0.769,5.151-0.234,7.104,1.631
						c2.858,2.724,2.963,7.243,0.244,10.095c-8.178,8.571-15.913,17.732-22.993,27.24c-2.358,3.169-6.831,3.815-9.993,1.458
						c-3.161-2.356-3.815-6.831-1.459-9.992c7.428-9.963,15.537-19.573,24.108-28.562
						C1881.01,857.918,1882.045,857.295,1883.144,856.944z M1839.568,915.374c1.843-0.589,3.914-0.431,5.722,0.602
						c3.422,1.958,4.611,6.321,2.652,9.742c-5.898,10.309-11.222,21.064-15.823,31.961c-1.535,3.637-5.727,5.336-9.354,3.801
						c-3.633-1.533-5.332-5.717-3.799-9.347c4.823-11.429,10.402-22.704,16.582-33.506
						C1836.47,917.016,1837.928,915.898,1839.568,915.374z M1811.243,982.566c1.295-0.414,2.72-0.467,4.127-0.06
						c3.792,1.079,5.989,5.032,4.906,8.825c-3.266,11.414-5.852,23.132-7.69,34.821c-0.617,3.886-4.269,6.553-8.162,5.938
						c-3.895-0.614-6.555-4.265-5.942-8.164c1.932-12.255,4.642-24.545,8.061-36.521
						C1807.226,985.021,1809.045,983.269,1811.243,982.566z"/>
					
						<linearGradient id="SVGID_00000075143189683278127290000000452083559555781547_" gradientUnits="userSpaceOnUse" x1="-1594.155" y1="8531.9355" x2="-1565.4052" y2="8531.9355" gradientTransform="matrix(-0.9525 0.3044 -0.3044 -0.9525 3288.5769 9392.9922)">
						<stop  offset="0" style="stop-color:#00a269"/>
						<stop  offset="1" style="stop-color:#018657"/>
					</linearGradient>
					<path style="fill:url(#SVGID_00000075143189683278127290000000452083559555781547_);" d="M2185.553,775.877
						c1.312-0.419,2.757-0.464,4.179-0.047c5.863,1.72,11.7,3.624,17.355,5.652c3.709,1.333,5.641,5.422,4.31,9.133
						c-1.34,3.699-5.42,5.633-9.133,4.309c-5.391-1.937-10.962-3.751-16.556-5.395c-3.783-1.11-5.949-5.081-4.837-8.861
						C2181.565,778.308,2183.371,776.574,2185.553,775.877z"/>
				</g>
				<g>
					
						<linearGradient id="SVGID_00000047769249073992382130000014269544212597095814_" gradientUnits="userSpaceOnUse" x1="524.5958" y1="9131.707" x2="-1897.7722" y2="8068.231" gradientTransform="matrix(-0.9525 0.3044 -0.3044 -0.9525 3288.5769 9392.9922)">
						<stop  offset="0" style="stop-color:#00a269"/>
						<stop  offset="1" style="stop-color:#00bdd6"/>
					</linearGradient>
					<path style="fill:url(#SVGID_00000047769249073992382130000014269544212597095814_);" d="M2207.971,865.53
						c-1.292-0.841-2.976-0.77-4.193,0.177l-34.712,27.033c-19.322-6.987-39.897-10.944-61.036-11.404l-22.621-37.702
						c-0.793-1.323-2.338-1.996-3.847-1.677l-51.632,10.915c-1.509,0.32-2.649,1.561-2.84,3.091l-5.425,43.632
						c-19.145,8.977-36.358,20.921-51.199,35.131l-42.683-10.672c-1.496-0.373-3.065,0.243-3.906,1.535l-28.791,44.228
						c-0.841,1.293-0.77,2.977,0.178,4.193l27.033,34.711c-6.988,19.322-10.944,39.898-11.404,61.037l-37.703,22.62
						c-1.323,0.794-1.996,2.338-1.677,3.847l10.916,51.633c0.319,1.509,1.56,2.65,3.09,2.839l43.632,5.426
						c8.976,19.145,20.921,36.358,35.131,51.198l-10.672,42.684c-0.374,1.495,0.242,3.064,1.534,3.905l44.229,28.791
						c1.292,0.842,2.976,0.77,4.193-0.177l34.712-27.034c19.321,6.989,39.897,10.944,61.036,11.404l22.621,37.704
						c0.793,1.322,2.337,1.996,3.847,1.677l51.633-10.916c1.509-0.319,2.648-1.56,2.839-3.09l5.425-43.632
						c19.145-8.976,36.359-20.921,51.2-35.131l42.682,10.672c1.497,0.375,3.066-0.242,3.907-1.535l28.791-44.228
						c0.841-1.293,0.771-2.976-0.177-4.193l-27.032-34.711c6.987-19.322,10.943-39.897,11.403-61.037l37.704-22.621
						c1.321-0.792,1.996-2.338,1.676-3.847l-10.915-51.632c-0.32-1.509-1.56-2.649-3.091-2.84l-43.632-5.426
						c-8.977-19.144-20.921-36.358-35.13-51.198l10.671-42.683c0.374-1.496-0.242-3.064-1.535-3.907L2207.971,865.53z"/>
					<path style="opacity:0.56;fill:#FFFFFF;" d="M2087.342,1022.638c10.97-3.505,22.727-3.406,33.82,0.39
						c13.646,4.671,24.656,14.378,31.001,27.332c13.101,26.728,2.009,59.138-24.727,72.248
						c-26.797,13.072-59.155,2.004-72.254-24.732c-6.349-12.953-7.272-27.603-2.6-41.245c4.669-13.649,14.376-24.662,27.334-31.006
						C2082.337,1024.442,2084.821,1023.443,2087.342,1022.638z M2115.742,1111.964c1.83-0.585,3.636-1.309,5.413-2.176
						c19.665-9.643,27.823-33.482,18.186-53.149c-4.668-9.523-12.766-16.67-22.802-20.101c-10.042-3.436-20.811-2.747-30.345,1.909
						l0,0c-9.526,4.669-16.668,12.77-20.104,22.804c-3.436,10.042-2.757,20.817,1.914,30.347
						C2076.769,1109.487,2097.298,1117.858,2115.742,1111.964z"/>
					<path style="opacity:0.56;fill:#FFFFFF;" d="M2062.106,947.033c4.303-1.375,8.71-2.541,13.219-3.499
						c8.956-1.896,18.115-2.883,27.244-2.931c0.41,0.001,0.821,0.002,1.231,0.002c3.173,0.011,5.853,2.089,6.773,4.957
						c0.223,0.697,0.34,1.443,0.337,2.212c-0.014,3.942-3.233,7.108-7.167,7.106c-8.524-0.036-17.089,0.85-25.458,2.624
						l-0.003,0.001c-0.459,0.096-0.92,0.2-1.375,0.301c-19.771,4.378-37.701,13.518-52.58,26.47
						c-8.076,7.031-15.253,15.194-21.328,24.344c-0.05,0.074-0.099,0.148-0.148,0.223c-0.149,0.231-0.301,0.455-0.447,0.685
						c-17.514,26.909-23.506,59.028-16.864,90.44c0.856,4.066,1.915,8.054,3.163,11.959c8.398,26.27,25.435,48.666,48.862,63.919
						c26.91,17.515,59.027,23.5,90.436,16.859c31.388-6.649,58.359-25.118,75.879-52.022c17.514-26.909,23.506-59.028,16.864-90.44
						c-0.842-3.998-1.889-7.938-3.124-11.802c-5.359-16.76-14.323-32.156-26.305-45.058c-0.738-0.796-1.261-1.712-1.568-2.683
						c-0.815-2.55-0.154-5.462,1.941-7.405c2.896-2.675,7.404-2.519,10.092,0.376c13.406,14.437,23.439,31.666,29.436,50.41
						c1.384,4.33,2.554,8.735,3.499,13.205c7.43,35.149,0.728,71.082-18.871,101.189c-19.598,30.1-49.719,50.792-84.886,58.201
						c-35.145,7.432-71.076,0.734-101.182-18.87c-26.21-17.058-45.269-42.116-54.664-71.507c-1.394-4.363-2.58-8.829-3.541-13.374
						C1957.188,1034.88,1997.233,967.763,2062.106,947.033z"/>
				</g>
			</g>
		</g>
		<g>
			<g>
				
					<linearGradient id="SVGID_00000096038438710674423760000001098904957366140593_" gradientUnits="userSpaceOnUse" x1="1156.3687" y1="2052.6733" x2="2381.1536" y2="2124.7195">
					<stop  offset="0" style="stop-color:#2B3582"/>
					<stop  offset="1" style="stop-color:#150E42"/>
				</linearGradient>
				<path style="fill:url(#SVGID_00000096038438710674423760000001098904957366140593_);" d="M2173.372,3079.944H1429.16
					c-5.667,0-10.26-4.594-10.26-10.26V1111.533c0-5.667,4.594-10.261,10.26-10.261h744.211c5.667,0,10.26,4.594,10.26,10.261
					v1958.151C2183.632,3075.35,2179.038,3079.944,2173.372,3079.944z"/>
				
					<linearGradient id="SVGID_00000131366665619558427050000000700282202970243478_" gradientUnits="userSpaceOnUse" x1="2315.1272" y1="1220.5752" x2="-30.4157" y2="3899.5842">
					<stop  offset="0" style="stop-color:#2B3582"/>
					<stop  offset="1" style="stop-color:#150E42"/>
				</linearGradient>
				<path style="fill:url(#SVGID_00000131366665619558427050000000700282202970243478_);" d="M1919.496,3079.944h-732.212
					c-8.98,0-16.26-7.28-16.26-16.26V1117.533c0-8.98,7.28-16.26,16.26-16.26h732.212c8.98,0,16.26,7.28,16.26,16.26v1946.151
					C1935.757,3072.664,1928.476,3079.944,1919.496,3079.944z"/>
				
					<linearGradient id="SVGID_00000106858642951108328650000015807676030204663231_" gradientUnits="userSpaceOnUse" x1="1617.3213" y1="1013.3469" x2="1524.8267" y2="1433.271">
					<stop  offset="0" style="stop-color:#5AB6FF"/>
					<stop  offset="1" style="stop-color:#2F68E3"/>
				</linearGradient>
				<path style="fill:url(#SVGID_00000106858642951108328650000015807676030204663231_);" d="M1855.006,1332.365h-584.563
					c-16.32,0-29.598-13.278-29.598-29.598v-83.102c0-16.32,13.278-29.598,29.598-29.598h584.563
					c16.32,0,29.598,13.278,29.598,29.598v83.102C1884.604,1319.087,1871.326,1332.365,1855.006,1332.365z M1270.443,1197.467
					c-12.241,0-22.199,9.957-22.199,22.198v83.102c0,12.241,9.958,22.199,22.199,22.199h584.563
					c12.241,0,22.199-9.958,22.199-22.199v-83.102c0-12.241-9.958-22.198-22.199-22.198H1270.443z"/>
				
					<linearGradient id="SVGID_00000022543501509216456780000006528951582836069782_" gradientUnits="userSpaceOnUse" x1="1617.3213" y1="1241.0255" x2="1524.8267" y2="1660.9496">
					<stop  offset="0" style="stop-color:#5AB6FF"/>
					<stop  offset="1" style="stop-color:#2F68E3"/>
				</linearGradient>
				<path style="fill:url(#SVGID_00000022543501509216456780000006528951582836069782_);" d="M1855.006,1560.044h-584.563
					c-16.32,0-29.598-13.278-29.598-29.598v-83.102c0-16.32,13.278-29.598,29.598-29.598h584.563
					c16.32,0,29.598,13.278,29.598,29.598v83.102C1884.604,1546.766,1871.326,1560.044,1855.006,1560.044z M1270.443,1425.145
					c-12.241,0-22.199,9.958-22.199,22.199v83.102c0,12.241,9.958,22.199,22.199,22.199h584.563
					c12.241,0,22.199-9.958,22.199-22.199v-83.102c0-12.241-9.958-22.199-22.199-22.199H1270.443z"/>
				
					<linearGradient id="SVGID_00000004523799722390944300000000862243137449801873_" gradientUnits="userSpaceOnUse" x1="1617.3213" y1="1482.6735" x2="1524.8267" y2="1902.5975">
					<stop  offset="0" style="stop-color:#5AB6FF"/>
					<stop  offset="1" style="stop-color:#2F68E3"/>
				</linearGradient>
				<path style="fill:url(#SVGID_00000004523799722390944300000000862243137449801873_);" d="M1855.006,1801.692h-584.563
					c-16.32,0-29.598-13.278-29.598-29.598v-83.102c0-16.32,13.278-29.598,29.598-29.598h584.563
					c16.32,0,29.598,13.278,29.598,29.598v83.102C1884.604,1788.414,1871.326,1801.692,1855.006,1801.692z M1270.443,1666.793
					c-12.241,0-22.199,9.958-22.199,22.199v83.102c0,12.241,9.958,22.199,22.199,22.199h584.563
					c12.241,0,22.199-9.958,22.199-22.199v-83.102c0-12.241-9.958-22.199-22.199-22.199H1270.443z"/>
				
					<linearGradient id="SVGID_00000052784220529982565940000015937217369327104699_" gradientUnits="userSpaceOnUse" x1="1617.3213" y1="1710.3521" x2="1524.8267" y2="2130.2761">
					<stop  offset="0" style="stop-color:#5AB6FF"/>
					<stop  offset="1" style="stop-color:#2F68E3"/>
				</linearGradient>
				<path style="fill:url(#SVGID_00000052784220529982565940000015937217369327104699_);" d="M1855.006,2029.37h-584.563
					c-16.32,0-29.598-13.278-29.598-29.598v-83.102c0-16.32,13.278-29.598,29.598-29.598h584.563
					c16.32,0,29.598,13.278,29.598,29.598v83.102C1884.604,2016.092,1871.326,2029.37,1855.006,2029.37z M1270.443,1894.472
					c-12.241,0-22.199,9.958-22.199,22.199v83.102c0,12.241,9.958,22.199,22.199,22.199h584.563
					c12.241,0,22.199-9.958,22.199-22.199v-83.102c0-12.241-9.958-22.199-22.199-22.199H1270.443z"/>
				
					<linearGradient id="SVGID_00000129887549783308746950000017437436797371213966_" gradientUnits="userSpaceOnUse" x1="1613.6215" y1="1966.1803" x2="1521.1268" y2="2386.1042">
					<stop  offset="0" style="stop-color:#5AB6FF"/>
					<stop  offset="1" style="stop-color:#2F68E3"/>
				</linearGradient>
				<path style="fill:url(#SVGID_00000129887549783308746950000017437436797371213966_);" d="M1851.306,2285.199h-584.564
					c-16.32,0-29.598-13.278-29.598-29.598v-83.102c0-16.32,13.278-29.598,29.598-29.598h584.564
					c16.32,0,29.598,13.278,29.598,29.598v83.102C1880.905,2271.921,1867.626,2285.199,1851.306,2285.199z M1266.743,2150.3
					c-12.241,0-22.199,9.958-22.199,22.198v83.102c0,12.241,9.958,22.198,22.199,22.198h584.564
					c12.241,0,22.199-9.958,22.199-22.198v-83.102c0-12.241-9.958-22.198-22.199-22.198H1266.743z"/>
				
					<linearGradient id="SVGID_00000171702746142474858590000017007012824578850690_" gradientUnits="userSpaceOnUse" x1="1613.6215" y1="2207.8284" x2="1521.1268" y2="2627.7524">
					<stop  offset="0" style="stop-color:#5AB6FF"/>
					<stop  offset="1" style="stop-color:#2F68E3"/>
				</linearGradient>
				<path style="fill:url(#SVGID_00000171702746142474858590000017007012824578850690_);" d="M1851.306,2526.847h-584.564
					c-16.32,0-29.598-13.278-29.598-29.598v-83.102c0-16.32,13.278-29.598,29.598-29.598h584.564
					c16.32,0,29.598,13.278,29.598,29.598v83.102C1880.905,2513.569,1867.626,2526.847,1851.306,2526.847z M1266.743,2391.948
					c-12.241,0-22.199,9.958-22.199,22.199v83.102c0,12.241,9.958,22.198,22.199,22.198h584.564
					c12.241,0,22.199-9.958,22.199-22.198v-83.102c0-12.241-9.958-22.199-22.199-22.199H1266.743z"/>
				
					<linearGradient id="SVGID_00000093877432683085832070000002433259287535812542_" gradientUnits="userSpaceOnUse" x1="1613.6215" y1="2435.5068" x2="1521.127" y2="2855.4309">
					<stop  offset="0" style="stop-color:#5AB6FF"/>
					<stop  offset="1" style="stop-color:#2F68E3"/>
				</linearGradient>
				<path style="fill:url(#SVGID_00000093877432683085832070000002433259287535812542_);" d="M1851.306,2754.525h-584.564
					c-16.32,0-29.598-13.278-29.598-29.598v-83.102c0-16.32,13.278-29.598,29.598-29.598h584.564
					c16.32,0,29.598,13.278,29.598,29.598v83.102C1880.905,2741.247,1867.626,2754.525,1851.306,2754.525z M1266.743,2619.626
					c-12.241,0-22.199,9.958-22.199,22.199v83.102c0,12.241,9.958,22.199,22.199,22.199h584.564
					c12.241,0,22.199-9.958,22.199-22.199v-83.102c0-12.241-9.958-22.199-22.199-22.199H1266.743z"/>
				
					<linearGradient id="SVGID_00000165229176532213048370000017329483101157319862_" gradientUnits="userSpaceOnUse" x1="1617.3213" y1="2698.7346" x2="1524.8267" y2="3118.6587">
					<stop  offset="0" style="stop-color:#5AB6FF"/>
					<stop  offset="1" style="stop-color:#2F68E3"/>
				</linearGradient>
				<path style="fill:url(#SVGID_00000165229176532213048370000017329483101157319862_);" d="M1855.006,3017.753h-584.563
					c-16.32,0-29.598-13.278-29.598-29.598v-83.102c0-16.32,13.278-29.598,29.598-29.598h584.563
					c16.32,0,29.598,13.278,29.598,29.598v83.102C1884.604,3004.475,1871.326,3017.753,1855.006,3017.753z M1270.443,2882.854
					c-12.241,0-22.199,9.958-22.199,22.199v83.102c0,12.241,9.958,22.199,22.199,22.199h584.563
					c12.241,0,22.199-9.958,22.199-22.199v-83.102c0-12.241-9.958-22.199-22.199-22.199H1270.443z"/>
				
					<linearGradient id="SVGID_00000025431971351071768250000001146097908151835574_" gradientUnits="userSpaceOnUse" x1="1294.1456" y1="1233.3192" x2="1284.2843" y2="1278.0897">
					<stop  offset="0" style="stop-color:#5AB6FF"/>
					<stop  offset="1" style="stop-color:#2F68E3"/>
				</linearGradient>
				
					<circle style="fill:url(#SVGID_00000025431971351071768250000001146097908151835574_);" cx="1288.325" cy="1259.746" r="14.182"/>
				
					<linearGradient id="SVGID_00000141414001171800797010000017747552115363194553_" gradientUnits="userSpaceOnUse" x1="1287.9795" y1="1465.7529" x2="1278.118" y2="1510.5234">
					<stop  offset="0" style="stop-color:#5AB6FF"/>
					<stop  offset="1" style="stop-color:#2F68E3"/>
				</linearGradient>
				
					<circle style="fill:url(#SVGID_00000141414001171800797010000017747552115363194553_);" cx="1282.159" cy="1492.18" r="14.182"/>
				
					<linearGradient id="SVGID_00000059289839762278956340000015491780093914573481_" gradientUnits="userSpaceOnUse" x1="1287.9795" y1="1704.1158" x2="1278.118" y2="1748.8865">
					<stop  offset="0" style="stop-color:#5AB6FF"/>
					<stop  offset="1" style="stop-color:#2F68E3"/>
				</linearGradient>
				
					<circle style="fill:url(#SVGID_00000059289839762278956340000015491780093914573481_);" cx="1282.159" cy="1730.543" r="14.182"/>
				
					<linearGradient id="SVGID_00000124122150333735527310000015401965546898880443_" gradientUnits="userSpaceOnUse" x1="1287.9795" y1="1931.7944" x2="1278.118" y2="1976.5651">
					<stop  offset="0" style="stop-color:#5AB6FF"/>
					<stop  offset="1" style="stop-color:#2F68E3"/>
				</linearGradient>
				
					<circle style="fill:url(#SVGID_00000124122150333735527310000015401965546898880443_);" cx="1282.159" cy="1958.221" r="14.182"/>
				
					<linearGradient id="SVGID_00000142143524875151456990000001190211845050601387_" gradientUnits="userSpaceOnUse" x1="1287.9795" y1="2187.6228" x2="1278.118" y2="2232.3933">
					<stop  offset="0" style="stop-color:#5AB6FF"/>
					<stop  offset="1" style="stop-color:#2F68E3"/>
				</linearGradient>
				
					<circle style="fill:url(#SVGID_00000142143524875151456990000001190211845050601387_);" cx="1282.159" cy="2214.05" r="14.182"/>
				
					<linearGradient id="SVGID_00000168102904983930080570000014629645803359529856_" gradientUnits="userSpaceOnUse" x1="1287.9795" y1="2429.2708" x2="1278.118" y2="2474.0413">
					<stop  offset="0" style="stop-color:#5AB6FF"/>
					<stop  offset="1" style="stop-color:#2F68E3"/>
				</linearGradient>
				
					<circle style="fill:url(#SVGID_00000168102904983930080570000014629645803359529856_);" cx="1282.159" cy="2455.698" r="14.182"/>
				
					<linearGradient id="SVGID_00000146497808835476942700000003646497420010786990_" gradientUnits="userSpaceOnUse" x1="1283.0464" y1="2656.9492" x2="1273.1849" y2="2701.7197">
					<stop  offset="0" style="stop-color:#5AB6FF"/>
					<stop  offset="1" style="stop-color:#2F68E3"/>
				</linearGradient>
				
					<circle style="fill:url(#SVGID_00000146497808835476942700000003646497420010786990_);" cx="1277.225" cy="2683.376" r="14.182"/>
				
					<linearGradient id="SVGID_00000181084136632391745320000002562615139948840354_" gradientUnits="userSpaceOnUse" x1="1287.9795" y1="2920.177" x2="1278.118" y2="2964.9475">
					<stop  offset="0" style="stop-color:#5AB6FF"/>
					<stop  offset="1" style="stop-color:#2F68E3"/>
				</linearGradient>
				
					<circle style="fill:url(#SVGID_00000181084136632391745320000002562615139948840354_);" cx="1282.159" cy="2946.604" r="14.182"/>
			</g>
			<g>
				
					<linearGradient id="SVGID_00000062883635963089458600000012767499523360904863_" gradientUnits="userSpaceOnUse" x1="2073.0723" y1="2074.6294" x2="3297.8572" y2="2146.6755">
					<stop  offset="0" style="stop-color:#2B3582"/>
					<stop  offset="1" style="stop-color:#150E42"/>
				</linearGradient>
				<path style="fill:url(#SVGID_00000062883635963089458600000012767499523360904863_);" d="M3090.075,3101.9h-744.211
					c-5.667,0-10.26-4.594-10.26-10.261v-1958.15c0-5.667,4.594-10.261,10.26-10.261h744.211c5.667,0,10.26,4.594,10.26,10.261
					v1958.15C3100.336,3097.306,3095.742,3101.9,3090.075,3101.9z"/>
				
					<linearGradient id="SVGID_00000055682531214892637610000003446769689207025822_" gradientUnits="userSpaceOnUse" x1="3231.8308" y1="1242.5313" x2="886.2878" y2="3921.5403">
					<stop  offset="0" style="stop-color:#2B3582"/>
					<stop  offset="1" style="stop-color:#150E42"/>
				</linearGradient>
				<path style="fill:url(#SVGID_00000055682531214892637610000003446769689207025822_);" d="M2836.2,3101.9h-732.212
					c-8.98,0-16.26-7.28-16.26-16.26V1139.489c0-8.98,7.28-16.26,16.26-16.26H2836.2c8.98,0,16.26,7.28,16.26,16.26V3085.64
					C2852.46,3094.62,2845.18,3101.9,2836.2,3101.9z"/>
				
					<linearGradient id="SVGID_00000181772816455580692420000015742899403429090447_" gradientUnits="userSpaceOnUse" x1="2534.0249" y1="1035.303" x2="2441.5303" y2="1455.2271">
					<stop  offset="0" style="stop-color:#5AB6FF"/>
					<stop  offset="1" style="stop-color:#2F68E3"/>
				</linearGradient>
				<path style="fill:url(#SVGID_00000181772816455580692420000015742899403429090447_);" d="M2771.71,1354.321h-584.563
					c-16.32,0-29.598-13.278-29.598-29.598v-83.102c0-16.32,13.278-29.598,29.598-29.598h584.563
					c16.32,0,29.598,13.278,29.598,29.598v83.102C2801.308,1341.043,2788.03,1354.321,2771.71,1354.321z M2187.146,1219.422
					c-12.241,0-22.199,9.958-22.199,22.199v83.102c0,12.241,9.958,22.199,22.199,22.199h584.563
					c12.241,0,22.198-9.957,22.198-22.199v-83.102c0-12.241-9.958-22.199-22.198-22.199H2187.146z"/>
				
					<linearGradient id="SVGID_00000003096370907306197470000008253516716949197996_" gradientUnits="userSpaceOnUse" x1="2534.0249" y1="1262.9814" x2="2441.5303" y2="1682.9055">
					<stop  offset="0" style="stop-color:#5AB6FF"/>
					<stop  offset="1" style="stop-color:#2F68E3"/>
				</linearGradient>
				<path style="fill:url(#SVGID_00000003096370907306197470000008253516716949197996_);" d="M2771.71,1582h-584.563
					c-16.32,0-29.598-13.278-29.598-29.598V1469.3c0-16.32,13.278-29.598,29.598-29.598h584.563
					c16.32,0,29.598,13.278,29.598,29.598v83.102C2801.308,1568.722,2788.03,1582,2771.71,1582z M2187.146,1447.101
					c-12.241,0-22.199,9.958-22.199,22.199v83.102c0,12.241,9.958,22.198,22.199,22.198h584.563
					c12.241,0,22.198-9.958,22.198-22.198V1469.3c0-12.241-9.958-22.199-22.198-22.199H2187.146z"/>
				
					<linearGradient id="SVGID_00000125584764298542233790000005731440303964746159_" gradientUnits="userSpaceOnUse" x1="2534.0249" y1="1504.6295" x2="2441.5303" y2="1924.5536">
					<stop  offset="0" style="stop-color:#5AB6FF"/>
					<stop  offset="1" style="stop-color:#2F68E3"/>
				</linearGradient>
				<path style="fill:url(#SVGID_00000125584764298542233790000005731440303964746159_);" d="M2771.71,1823.648h-584.563
					c-16.32,0-29.598-13.278-29.598-29.598v-83.102c0-16.32,13.278-29.598,29.598-29.598h584.563
					c16.32,0,29.598,13.278,29.598,29.598v83.102C2801.308,1810.37,2788.03,1823.648,2771.71,1823.648z M2187.146,1688.749
					c-12.241,0-22.199,9.957-22.199,22.199v83.102c0,12.241,9.958,22.199,22.199,22.199h584.563
					c12.241,0,22.198-9.958,22.198-22.199v-83.102c0-12.241-9.958-22.199-22.198-22.199H2187.146z"/>
				
					<linearGradient id="SVGID_00000088134180242240046520000002869506479710024118_" gradientUnits="userSpaceOnUse" x1="2534.0249" y1="1732.308" x2="2441.5303" y2="2152.2322">
					<stop  offset="0" style="stop-color:#5AB6FF"/>
					<stop  offset="1" style="stop-color:#2F68E3"/>
				</linearGradient>
				<path style="fill:url(#SVGID_00000088134180242240046520000002869506479710024118_);" d="M2771.71,2051.326h-584.563
					c-16.32,0-29.598-13.278-29.598-29.598v-83.102c0-16.32,13.278-29.598,29.598-29.598h584.563
					c16.32,0,29.598,13.278,29.598,29.598v83.102C2801.308,2038.048,2788.03,2051.326,2771.71,2051.326z M2187.146,1916.428
					c-12.241,0-22.199,9.958-22.199,22.199v83.102c0,12.241,9.958,22.199,22.199,22.199h584.563
					c12.241,0,22.198-9.958,22.198-22.199v-83.102c0-12.241-9.958-22.199-22.198-22.199H2187.146z"/>
				
					<linearGradient id="SVGID_00000096058255758188163660000009102826727482444716_" gradientUnits="userSpaceOnUse" x1="2530.325" y1="1988.1362" x2="2437.8306" y2="2408.0603">
					<stop  offset="0" style="stop-color:#5AB6FF"/>
					<stop  offset="1" style="stop-color:#2F68E3"/>
				</linearGradient>
				<path style="fill:url(#SVGID_00000096058255758188163660000009102826727482444716_);" d="M2768.01,2307.155h-584.564
					c-16.32,0-29.598-13.278-29.598-29.598v-83.102c0-16.32,13.278-29.598,29.598-29.598h584.564
					c16.32,0,29.598,13.278,29.598,29.598v83.102C2797.608,2293.877,2784.33,2307.155,2768.01,2307.155z M2183.446,2172.256
					c-12.241,0-22.198,9.958-22.198,22.199v83.102c0,12.241,9.958,22.198,22.198,22.198h584.564
					c12.241,0,22.198-9.958,22.198-22.198v-83.102c0-12.241-9.958-22.199-22.198-22.199H2183.446z"/>
				
					<linearGradient id="SVGID_00000134930700707560686420000011006986917040939941_" gradientUnits="userSpaceOnUse" x1="2530.325" y1="2229.7842" x2="2437.8306" y2="2649.7083">
					<stop  offset="0" style="stop-color:#5AB6FF"/>
					<stop  offset="1" style="stop-color:#2F68E3"/>
				</linearGradient>
				<path style="fill:url(#SVGID_00000134930700707560686420000011006986917040939941_);" d="M2768.01,2548.803h-584.564
					c-16.32,0-29.598-13.278-29.598-29.598v-83.102c0-16.32,13.278-29.598,29.598-29.598h584.564
					c16.32,0,29.598,13.278,29.598,29.598v83.102C2797.608,2535.525,2784.33,2548.803,2768.01,2548.803z M2183.446,2413.904
					c-12.241,0-22.198,9.958-22.198,22.199v83.102c0,12.241,9.958,22.199,22.198,22.199h584.564
					c12.241,0,22.198-9.958,22.198-22.199v-83.102c0-12.241-9.958-22.199-22.198-22.199H2183.446z"/>
				
					<linearGradient id="SVGID_00000083780878105383499710000000540334724079915411_" gradientUnits="userSpaceOnUse" x1="2530.325" y1="2457.4629" x2="2437.8306" y2="2877.387">
					<stop  offset="0" style="stop-color:#5AB6FF"/>
					<stop  offset="1" style="stop-color:#2F68E3"/>
				</linearGradient>
				<path style="fill:url(#SVGID_00000083780878105383499710000000540334724079915411_);" d="M2768.01,2776.481h-584.564
					c-16.32,0-29.598-13.278-29.598-29.598v-83.102c0-16.32,13.278-29.598,29.598-29.598h584.564
					c16.32,0,29.598,13.278,29.598,29.598v83.102C2797.608,2763.203,2784.33,2776.481,2768.01,2776.481z M2183.446,2641.583
					c-12.241,0-22.198,9.958-22.198,22.198v83.102c0,12.241,9.958,22.199,22.198,22.199h584.564
					c12.241,0,22.198-9.958,22.198-22.199v-83.102c0-12.241-9.958-22.198-22.198-22.198H2183.446z"/>
				
					<linearGradient id="SVGID_00000013888242261437091860000007804075027446361004_" gradientUnits="userSpaceOnUse" x1="2534.0249" y1="2720.6907" x2="2441.5303" y2="3140.6147">
					<stop  offset="0" style="stop-color:#5AB6FF"/>
					<stop  offset="1" style="stop-color:#2F68E3"/>
				</linearGradient>
				<path style="fill:url(#SVGID_00000013888242261437091860000007804075027446361004_);" d="M2771.71,3039.709h-584.563
					c-16.32,0-29.598-13.278-29.598-29.598v-83.102c0-16.32,13.278-29.598,29.598-29.598h584.563
					c16.32,0,29.598,13.278,29.598,29.598v83.102C2801.308,3026.431,2788.03,3039.709,2771.71,3039.709z M2187.146,2904.81
					c-12.241,0-22.199,9.958-22.199,22.198v83.102c0,12.241,9.958,22.199,22.199,22.199h584.563
					c12.241,0,22.198-9.958,22.198-22.199v-83.102c0-12.241-9.958-22.198-22.198-22.198H2187.146z"/>
				
					<linearGradient id="SVGID_00000028325171548831220740000012021081384280639679_" gradientUnits="userSpaceOnUse" x1="2210.8494" y1="1255.2751" x2="2200.9878" y2="1300.0457">
					<stop  offset="0" style="stop-color:#5AB6FF"/>
					<stop  offset="1" style="stop-color:#2F68E3"/>
				</linearGradient>
				
					<circle style="fill:url(#SVGID_00000028325171548831220740000012021081384280639679_);" cx="2205.028" cy="1281.702" r="14.182"/>
				
					<linearGradient id="SVGID_00000024694555174638645290000016574726979855797935_" gradientUnits="userSpaceOnUse" x1="2204.6829" y1="1487.7089" x2="2194.8215" y2="1532.4794">
					<stop  offset="0" style="stop-color:#5AB6FF"/>
					<stop  offset="1" style="stop-color:#2F68E3"/>
				</linearGradient>
				
					<circle style="fill:url(#SVGID_00000024694555174638645290000016574726979855797935_);" cx="2198.862" cy="1514.136" r="14.182"/>
				
					<linearGradient id="SVGID_00000119107599469425039360000004480718045297684899_" gradientUnits="userSpaceOnUse" x1="2204.6829" y1="1726.072" x2="2194.8215" y2="1770.8425">
					<stop  offset="0" style="stop-color:#5AB6FF"/>
					<stop  offset="1" style="stop-color:#2F68E3"/>
				</linearGradient>
				
					<circle style="fill:url(#SVGID_00000119107599469425039360000004480718045297684899_);" cx="2198.862" cy="1752.499" r="14.182"/>
				
					<linearGradient id="SVGID_00000154400916129817915290000009163288774846591879_" gradientUnits="userSpaceOnUse" x1="2204.6829" y1="1953.7505" x2="2194.8215" y2="1998.521">
					<stop  offset="0" style="stop-color:#5AB6FF"/>
					<stop  offset="1" style="stop-color:#2F68E3"/>
				</linearGradient>
				
					<circle style="fill:url(#SVGID_00000154400916129817915290000009163288774846591879_);" cx="2198.862" cy="1980.177" r="14.182"/>
				
					<linearGradient id="SVGID_00000153667177708494618580000016282442899963989896_" gradientUnits="userSpaceOnUse" x1="2204.6829" y1="2209.5789" x2="2194.8215" y2="2254.3494">
					<stop  offset="0" style="stop-color:#5AB6FF"/>
					<stop  offset="1" style="stop-color:#2F68E3"/>
				</linearGradient>
				
					<circle style="fill:url(#SVGID_00000153667177708494618580000016282442899963989896_);" cx="2198.862" cy="2236.006" r="14.182"/>
				
					<linearGradient id="SVGID_00000116932460131111180060000007402820283829128073_" gradientUnits="userSpaceOnUse" x1="2204.6829" y1="2451.2268" x2="2194.8215" y2="2495.9973">
					<stop  offset="0" style="stop-color:#5AB6FF"/>
					<stop  offset="1" style="stop-color:#2F68E3"/>
				</linearGradient>
				
					<circle style="fill:url(#SVGID_00000116932460131111180060000007402820283829128073_);" cx="2198.862" cy="2477.654" r="14.182"/>
				
					<linearGradient id="SVGID_00000143587009855876015190000001849241234946012804_" gradientUnits="userSpaceOnUse" x1="2199.75" y1="2678.9053" x2="2189.8887" y2="2723.6758">
					<stop  offset="0" style="stop-color:#5AB6FF"/>
					<stop  offset="1" style="stop-color:#2F68E3"/>
				</linearGradient>
				
					<circle style="fill:url(#SVGID_00000143587009855876015190000001849241234946012804_);" cx="2193.929" cy="2705.332" r="14.182"/>
				
					<linearGradient id="SVGID_00000035496979820362396850000009198380687539367301_" gradientUnits="userSpaceOnUse" x1="2204.6829" y1="2942.1331" x2="2194.8215" y2="2986.9036">
					<stop  offset="0" style="stop-color:#5AB6FF"/>
					<stop  offset="1" style="stop-color:#2F68E3"/>
				</linearGradient>
				
					<circle style="fill:url(#SVGID_00000035496979820362396850000009198380687539367301_);" cx="2198.862" cy="2968.56" r="14.182"/>
			</g>
		</g>
		<g>
			<g>
				
					<linearGradient id="SVGID_00000016784036934181456550000007242059704599019684_" gradientUnits="userSpaceOnUse" x1="1217.7109" y1="2118.6587" x2="1225.8372" y2="1975.0973">
					<stop  offset="0" style="stop-color:#A737D5"/>
					<stop  offset="1" style="stop-color:#EF497A"/>
				</linearGradient>
				<path style="fill:url(#SVGID_00000016784036934181456550000007242059704599019684_);" d="M1112.513,1944.157
					c-1.13,2.14-72.276,54.493-72.276,54.493s15.712,112.402,79.513,156.787c70.146,48.798,169.209-40.195,169.209-40.195
					s78.837,18.741,120.763-145.37c9.619-37.651-45.904-40.833-112.915-33.899
					C1210.394,1944.917,1112.513,1944.157,1112.513,1944.157z"/>
				
					<linearGradient id="SVGID_00000162334833644889971240000013305239818898951594_" gradientUnits="userSpaceOnUse" x1="1513.3733" y1="2413.5161" x2="691.7264" y2="3161.4248">
					<stop  offset="0" style="stop-color:#a84b43"/>
					<stop  offset="1" style="stop-color:#D93C65"/>
				</linearGradient>
				<path style="fill:url(#SVGID_00000162334833644889971240000013305239818898951594_);" d="M979.53,2327.637
					c27.833-19.136,58.606-33.564,91.23-42.442c12.254-3.335,78.419,15.895,119.319,14.955
					c56.144-1.291,113.294-26.841,159.573-15.308c45.97,11.456,83.595,26.418,105.32,41.871
					c65.026,46.25,103.206,132.488,126.472,217.91c-44.055,45.223-99.497,65.323-99.497,65.323l-10.245,415.217l-245.525,125.62
					L945.94,3010.087l10.039-405.766c0,0-88.99-41.442-95.519-56.517C853.929,2532.73,901.017,2381.62,979.53,2327.637z"/>
				
					<linearGradient id="SVGID_00000002358790030661590070000001652494241085083273_" gradientUnits="userSpaceOnUse" x1="803.6745" y1="2457.1011" x2="1270.2412" y2="3584.1326">
					<stop  offset="0" style="stop-color:#F9B776"/>
					<stop  offset="1" style="stop-color:#F47960"/>
				</linearGradient>
				<path style="fill:url(#SVGID_00000002358790030661590070000001652494241085083273_);" d="M864.604,2545.992
					c0,0-119.251,330.611,152.684,466.49c56.465-7.501,34.747-101.271,34.747-101.271s-118.158-26.148-82.671-301.941
					C936.693,2582.389,864.604,2545.992,864.604,2545.992z"/>
				
					<linearGradient id="SVGID_00000000939289178137074220000011418726418746487192_" gradientUnits="userSpaceOnUse" x1="-5797.8613" y1="2454.6787" x2="-5331.2949" y2="3581.7102" gradientTransform="matrix(-1 0 0 1 -4167.0742 0)">
					<stop  offset="0" style="stop-color:#F9B776"/>
					<stop  offset="1" style="stop-color:#F47960"/>
				</linearGradient>
				<path style="fill:url(#SVGID_00000000939289178137074220000011418726418746487192_);" d="M1575.709,2545.992
					c0,0,82.057,345.113-152.684,466.49c-56.465-7.501-34.747-101.271-34.747-101.271s95.228-46.899,82.672-301.941
					C1503.62,2582.389,1575.709,2545.992,1575.709,2545.992z"/>
				
					<linearGradient id="SVGID_00000106857682148894014650000005929413641845640095_" gradientUnits="userSpaceOnUse" x1="1218.1207" y1="2602.3848" x2="1193.8319" y2="3586.0977">
					<stop  offset="0" style="stop-color:#2B3582"/>
					<stop  offset="1" style="stop-color:#150E42"/>
				</linearGradient>
				<path style="fill:url(#SVGID_00000106857682148894014650000005929413641845640095_);" d="M1477.059,3035.703H946.762
					c-2.23,0-4.055-1.825-4.055-4.055v-355.497c0-2.23,1.825-4.055,4.055-4.055h530.297c2.23,0,4.055,1.825,4.055,4.055v355.497
					C1481.114,3033.878,1479.289,3035.703,1477.059,3035.703z"/>
				<g>
					
						<linearGradient id="SVGID_00000150063638459459300620000013463062888795585717_" gradientUnits="userSpaceOnUse" x1="1512.9879" y1="3165.3198" x2="1767.9504" y2="3165.3198" gradientTransform="matrix(1 0.0077 -0.0077 1 9.5247 16.8137)">
						<stop  offset="0" style="stop-color:#2C759E"/>
						<stop  offset="1" style="stop-color:#051042"/>
					</linearGradient>
					<path style="fill:url(#SVGID_00000150063638459459300620000013463062888795585717_);" d="M1717.267,3143.498
						c-61.617-14.144-204.027-6.54-204.027-6.54l-5.792,15.686l-9.592,77.969c0,0,135.621,24.445,202.471,24.386
						c6.821-0.007,13.059-1.03,18.757-2.804c2.038-1.828,4.031-3.725,5.914-5.782
						C1753.36,3215.439,1745.169,3169.936,1717.267,3143.498z"/>
					
						<linearGradient id="SVGID_00000115475919591944000710000017245916965721629578_" gradientUnits="userSpaceOnUse" x1="1666.4238" y1="2734.0764" x2="1397.2939" y2="3463.0439">
						<stop  offset="0" style="stop-color:#F9B776"/>
						<stop  offset="1" style="stop-color:#F47960"/>
					</linearGradient>
					<path style="fill:url(#SVGID_00000115475919591944000710000017245916965721629578_);" d="M1472.321,3132.569l24.114,1.028
						c12.956,0.553,25.167,6.865,33.877,17.517c8.712,10.649,13.192,24.741,12.43,39.095c-0.608,11.446-5.304,22.15-13.049,29.745
						c-7.745,7.593-17.9,11.45-28.217,10.716l-36.897-2.626L1472.321,3132.569z"/>
				</g>
				<g>
					
						<linearGradient id="SVGID_00000160885239656415735000000007871562490871855039_" gradientUnits="userSpaceOnUse" x1="-5757.0864" y1="3128.8486" x2="-5502.0161" y2="3128.8486" gradientTransform="matrix(-0.9998 -0.02 -0.02 0.9998 -4813.9961 -50.8396)">
						<stop  offset="0" style="stop-color:#2C759E"/>
						<stop  offset="1" style="stop-color:#051042"/>
					</linearGradient>
					<path style="fill:url(#SVGID_00000160885239656415735000000007871562490871855039_);" d="M661.462,3135.998
						c61.946-12.249,204.112-0.277,204.112-0.277l5.398,15.858l7.644,78.234c0,0-136.179,20.274-203.003,18.163
						c-6.818-0.215-13.028-1.43-18.68-3.378c-1.992-1.89-3.936-3.848-5.768-5.963C623.587,3206.803,632.91,3161.57,661.462,3135.998
						z"/>
					
						<linearGradient id="SVGID_00000065057667921197582180000002603621797749577112_" gradientUnits="userSpaceOnUse" x1="1127.2156" y1="2514.4009" x2="857.9439" y2="3243.7527">
						<stop  offset="0" style="stop-color:#F9B776"/>
						<stop  offset="1" style="stop-color:#F47960"/>
					</linearGradient>
					<path style="fill:url(#SVGID_00000065057667921197582180000002603621797749577112_);" d="M906.587,3132.589l-24.131,0.288
						c-12.965,0.156-25.328,6.091-34.302,16.47c-8.973,10.378-13.803,24.326-13.399,38.699c0.322,11.46,4.749,22.304,12.302,30.133
						c7.552,7.829,17.607,11.995,27.939,11.578l36.948-1.492L906.587,3132.589z"/>
				</g>
				
					<linearGradient id="SVGID_00000100353965482865667590000001531146448353267390_" gradientUnits="userSpaceOnUse" x1="1780.4962" y1="2720.0049" x2="1080.8558" y2="3245.5713">
					<stop  offset="0" style="stop-color:#0ac2af"/>
					<stop  offset="1" style="stop-color:#079083"/>
				</linearGradient>
				<path style="fill:url(#SVGID_00000100353965482865667590000001531146448353267390_);" d="M1734.498,2899.073
					c-27.943-64.312-96.286-74.751-154.454-44.681c-1.013,1.33-369.402,190.134-694.277,272.88
					c9.301,29.816,14.083,61.542,15.126,92.726c0.188,6.948,0.072,13.8-0.336,20.562c249.132-12.796,519.514-95.881,751.855-168.898
					C1724.46,3048.427,1765.47,2970.352,1734.498,2899.073z"/>
				
					<linearGradient id="SVGID_00000117664721935611743130000009692439427476550049_" gradientUnits="userSpaceOnUse" x1="1147.8074" y1="3191.3865" x2="964.4413" y2="2723.8037">
					<stop  offset="0" style="stop-color:#0ac2af"/>
					<stop  offset="1" style="stop-color:#079083"/>
				</linearGradient>
				<path style="fill:url(#SVGID_00000117664721935611743130000009692439427476550049_);" d="M1474.092,3224.884
					c-0.974-35.944,6.015-69.406,20.965-100.384c0.427-1.419,0.939-2.781,1.391-4.183c-18.552-5.745-42.518-13.53-74.002-24.211
					c-230.693-78.949-406.685-158.666-574.652-250.433c-65.252-35.65-139.444-11.757-160.332,65.453
					c-18.647,68.926,22.301,127.771,84.449,148.451c185.93,61.871,89.122,44.686,149.846,64.228
					c163.08,50.429,366.013,96.362,552.722,108.904C1474.339,3230.1,1474.179,3227.488,1474.092,3224.884z"/>
				
					<linearGradient id="SVGID_00000006709989149753733620000012750761076807232385_" gradientUnits="userSpaceOnUse" x1="1213.2531" y1="2550.157" x2="1207.045" y2="2010.0265">
					<stop  offset="0" style="stop-color:#F9B776"/>
					<stop  offset="1" style="stop-color:#F47960"/>
				</linearGradient>
				<path style="fill:url(#SVGID_00000006709989149753733620000012750761076807232385_);" d="M1070.759,2285.195
					c0,0,24.811,107.516,145.267,105.283c122.688-2.233,133.626-105.637,133.626-105.637l-80.143-17.149l-6.698-89.299
					l-120.553,8.931l-2.231,84.833L1070.759,2285.195z"/>
				
					<linearGradient id="SVGID_00000111905705985395962070000008802873086857417385_" gradientUnits="userSpaceOnUse" x1="1358.7562" y1="1696.6566" x2="1378.0946" y2="1226.6487" gradientTransform="matrix(0.987 0.1608 -0.1608 0.987 126.9837 357.2448)">
					<stop  offset="0" style="stop-color:#F9B776"/>
					<stop  offset="1" style="stop-color:#F47960"/>
				</linearGradient>
				<path style="fill:url(#SVGID_00000111905705985395962070000008802873086857417385_);" d="M1159.183,1925.382
					c0,0-138.154,267.611,25.728,332.537c115.595,45.795,188.071-177.714,166.454-238.251
					c-33.424-93.603-55.437-82.495-55.437-82.495L1159.183,1925.382z"/>
				
					<linearGradient id="SVGID_00000158020399599675285150000003576226346245586878_" gradientUnits="userSpaceOnUse" x1="1297.9985" y1="1673.5433" x2="1243.1472" y2="1890.9169">
					<stop  offset="0" style="stop-color:#888888"/>
					<stop  offset="1" style="stop-color:#767676"/>
				</linearGradient>
				<path style="fill:url(#SVGID_00000158020399599675285150000003576226346245586878_);" d="M1384.609,1901.032
					c68.25,18.759,9.921,166.779-92.833,131.775c-102.755-35.003-143.134-34.493-159.146-6.276
					c-16.013,28.216-19.453,128.417-54.195,78.89c-38.09-54.298-59.329-163.283-12.627-198.416
					c41.738-31.399,51.478-80.081,101.539-78.393c66.448,2.24,117.835-27.215,147.828-5.973
					C1349.622,1847.034,1334.39,1887.229,1384.609,1901.032z"/>
				
					<linearGradient id="SVGID_00000013873081795499788100000008006631984132765601_" gradientUnits="userSpaceOnUse" x1="812.3345" y1="2659.4236" x2="842.6396" y2="1922.8765" gradientTransform="matrix(0.9911 -0.1329 0.1329 0.9911 -26.0254 -216.2621)">
					<stop  offset="0" style="stop-color:#F9B776"/>
					<stop  offset="1" style="stop-color:#F47960"/>
				</linearGradient>
				<path style="fill:url(#SVGID_00000013873081795499788100000008006631984132765601_);" d="M1126.311,2049.542
					c0,0-29.464-31.703-34.18,6.507c-4.717,38.21,10.425,87.421,28.164,60.447
					C1138.035,2089.522,1126.311,2049.542,1126.311,2049.542z"/>
			</g>
			
				<linearGradient id="SVGID_00000018199157339197985690000014952647146124268205_" gradientUnits="userSpaceOnUse" x1="1215.3772" y1="2527.6013" x2="1199.6979" y2="3277.9373">
				<stop  offset="0" style="stop-color:#53D8FF"/>
				<stop  offset="1" style="stop-color:#3840F7"/>
			</linearGradient>
			<path style="fill:url(#SVGID_00000018199157339197985690000014952647146124268205_);" d="M1243.668,2770.565
				c2.855,19.29-7.48,36.8-26.771,39.655c-19.291,2.855-37.243-10.47-40.097-29.76c-2.854-19.291,5.975-38.45,25.265-41.305
				C1221.357,2736.301,1240.814,2751.274,1243.668,2770.565z"/>
		</g>
	</g>
</g>
</svg>
